<?xml version="1.0" encoding="us-ascii" standalone="no"?><svg xmlns="http://www.w3.org/2000/svg" xmlns:xlink="http://www.w3.org/1999/xlink" contentStyleType="text/css" height="1234px" preserveAspectRatio="none" style="width:2821px;height:1234px;background:#FFFFFF;" version="1.1" viewBox="0 0 2821 1234" width="2821px" zoomAndPan="magnify"><defs/><g><!--cluster src--><g id="cluster_src"><path d="M8.5,6.0137 L31.5,6.0137 A3.75,3.75 0 0 1 34,8.5137 L41,30.6348 L2811.5,30.6348 A2.5,2.5 0 0 1 2814,33.1348 L2814,1224.5137 A2.5,2.5 0 0 1 2811.5,1227.0137 L8.5,1227.0137 A2.5,2.5 0 0 1 6,1224.5137 L6,8.5137 A2.5,2.5 0 0 1 8.5,6.0137 " fill="none" style="stroke:#000000;stroke-width:1.5;"/><line style="stroke:#000000;stroke-width:1.5;" x1="6" x2="41" y1="30.6348" y2="30.6348"/><text fill="#000000" font-family="sans-serif" font-size="14" font-weight="bold" lengthAdjust="spacing" textLength="22" x="10" y="23.1211">src</text></g><!--cluster world--><g id="cluster_world"><path d="M68.5,232.0137 L108.5,232.0137 A3.75,3.75 0 0 1 111,234.5137 L118,256.6348 L2787.5,256.6348 A2.5,2.5 0 0 1 2790,259.1348 L2790,1200.5137 A2.5,2.5 0 0 1 2787.5,1203.0137 L68.5,1203.0137 A2.5,2.5 0 0 1 66,1200.5137 L66,234.5137 A2.5,2.5 0 0 1 68.5,232.0137 " fill="none" style="stroke:#000000;stroke-width:1.5;"/><line style="stroke:#000000;stroke-width:1.5;" x1="66" x2="118" y1="256.6348" y2="256.6348"/><text fill="#000000" font-family="sans-serif" font-size="14" font-weight="bold" lengthAdjust="spacing" textLength="39" x="70" y="249.1211">world</text></g><!--cluster heroes--><g id="cluster_heroes"><path d="M1629.5,452.0137 L1680.5,452.0137 A3.75,3.75 0 0 1 1683,454.5137 L1690,476.6348 L2763.5,476.6348 A2.5,2.5 0 0 1 2766,479.1348 L2766,1176.5137 A2.5,2.5 0 0 1 2763.5,1179.0137 L1629.5,1179.0137 A2.5,2.5 0 0 1 1627,1176.5137 L1627,454.5137 A2.5,2.5 0 0 1 1629.5,452.0137 " fill="none" style="stroke:#000000;stroke-width:1.5;"/><line style="stroke:#000000;stroke-width:1.5;" x1="1627" x2="1690" y1="476.6348" y2="476.6348"/><text fill="#000000" font-family="sans-serif" font-size="14" font-weight="bold" lengthAdjust="spacing" textLength="50" x="1631" y="469.1211">heroes</text></g><!--cluster actions--><g id="cluster_actions"><path d="M1186.5,51.0137 L1238.5,51.0137 A3.75,3.75 0 0 1 1241,53.5137 L1248,75.6348 L2787.5,75.6348 A2.5,2.5 0 0 1 2790,78.1348 L2790,205.5137 A2.5,2.5 0 0 1 2787.5,208.0137 L1186.5,208.0137 A2.5,2.5 0 0 1 1184,205.5137 L1184,53.5137 A2.5,2.5 0 0 1 1186.5,51.0137 " fill="none" style="stroke:#000000;stroke-width:1.5;"/><line style="stroke:#000000;stroke-width:1.5;" x1="1184" x2="1248" y1="75.6348" y2="75.6348"/><text fill="#000000" font-family="sans-serif" font-size="14" font-weight="bold" lengthAdjust="spacing" textLength="51" x="1188" y="68.1211">actions</text></g><!--cluster error--><g id="cluster_error"><path d="M192.5,69.5137 L229.5,69.5137 A3.75,3.75 0 0 1 232,72.0137 L239,94.1348 L1157.5,94.1348 A2.5,2.5 0 0 1 1160,96.6348 L1160,187.0137 A2.5,2.5 0 0 1 1157.5,189.5137 L192.5,189.5137 A2.5,2.5 0 0 1 190,187.0137 L190,72.0137 A2.5,2.5 0 0 1 192.5,69.5137 " fill="none" style="stroke:#000000;stroke-width:1.5;"/><line style="stroke:#000000;stroke-width:1.5;" x1="190" x2="239" y1="94.1348" y2="94.1348"/><text fill="#000000" font-family="sans-serif" font-size="14" font-weight="bold" lengthAdjust="spacing" textLength="36" x="194" y="86.6211">error</text></g><!--class Main--><g id="elem_Main"><rect codeLine="164" fill="#F1F1F1" height="66.6211" id="Main" rx="2.5" ry="2.5" style="stroke:#181818;stroke-width:0.5;" width="149" x="22.5" y="106.5137"/><ellipse cx="77.75" cy="122.5137" fill="#ADD1B2" rx="11" ry="11" style="stroke:#181818;stroke-width:1.0;"/><path d="M80.5156,118.3887 Q80.6719,118.1699 80.8594,118.0605 Q81.0469,117.9512 81.2656,117.9512 Q81.6406,117.9512 81.875,118.2168 Q82.1094,118.4668 82.1094,119.0762 L82.1094,120.5293 Q82.1094,121.1387 81.875,121.4043 Q81.6406,121.6699 81.2656,121.6699 Q80.9219,121.6699 80.7188,121.4668 Q80.5156,121.2793 80.4063,120.7637 Q80.3594,120.4043 80.1719,120.2168 Q79.8438,119.8418 79.2344,119.623 Q78.625,119.4043 78,119.4043 Q77.2344,119.4043 76.5938,119.7324 Q75.9688,120.0605 75.4688,120.8105 Q74.9844,121.5605 74.9844,122.5918 L74.9844,123.6855 Q74.9844,124.9199 75.875,125.748 Q76.7656,126.5605 78.3594,126.5605 Q79.2969,126.5605 79.9531,126.3105 Q80.3438,126.1543 80.7656,125.7168 Q81.0313,125.4512 81.1719,125.373 Q81.3281,125.2949 81.5313,125.2949 Q81.8594,125.2949 82.1094,125.5605 Q82.375,125.8105 82.375,126.1543 Q82.375,126.498 82.0313,126.9043 Q81.5313,127.4824 80.7344,127.8105 Q79.6563,128.2637 78.3594,128.2637 Q76.8438,128.2637 75.6406,127.6387 Q74.6563,127.1387 73.9688,126.0762 Q73.2813,124.998 73.2813,123.7168 L73.2813,122.5605 Q73.2813,121.2324 73.8906,120.0918 Q74.5156,118.9355 75.6094,118.3262 Q76.7031,117.7012 77.9375,117.7012 Q78.6719,117.7012 79.3125,117.873 Q79.9688,118.0293 80.5156,118.3887 Z " fill="#000000"/><text fill="#000000" font-family="sans-serif" font-size="14" lengthAdjust="spacing" textLength="30" x="98.25" y="128.3105">Main</text><line style="stroke:#181818;stroke-width:0.5;" x1="23.5" x2="170.5" y1="138.5137" y2="138.5137"/><line style="stroke:#181818;stroke-width:0.5;" x1="23.5" x2="170.5" y1="146.5137" y2="146.5137"/><ellipse cx="33.5" cy="161.3242" fill="#84BE84" rx="3" ry="3" style="stroke:#038048;stroke-width:1.0;"/><text fill="#000000" font-family="sans-serif" font-size="14" lengthAdjust="spacing" textLength="123" x="42.5" y="165.6211">main(String[]) : void</text></g><!--class SeverityLevel--><g id="elem_SeverityLevel"><rect codeLine="65" fill="#F1F1F1" height="85.2422" id="SeverityLevel" rx="2.5" ry="2.5" style="stroke:#181818;stroke-width:0.5;" width="117" x="1412.5" y="306.5137"/><ellipse cx="1427.5" cy="322.5137" fill="#EB937F" rx="11" ry="11" style="stroke:#181818;stroke-width:1.0;"/><path d="M1426.3594,323.3105 L1426.3594,325.8105 L1430.6875,325.8105 L1430.6875,324.8887 Q1430.6875,324.2793 1430.9219,324.0137 Q1431.1719,323.748 1431.5469,323.748 Q1431.9219,323.748 1432.1563,324.0137 Q1432.3906,324.2793 1432.3906,324.8887 L1432.3906,327.5137 L1424.3906,327.5137 Q1423.7656,327.5137 1423.5,327.2793 Q1423.25,327.0449 1423.25,326.6543 Q1423.25,326.2793 1423.5156,326.0449 Q1423.7813,325.8105 1424.3906,325.8105 L1424.6563,325.8105 L1424.6563,319.1543 L1424.3906,319.1543 Q1423.7656,319.1543 1423.5,318.9199 Q1423.25,318.6855 1423.25,318.2949 Q1423.25,317.9199 1423.5,317.6855 Q1423.7656,317.4512 1424.3906,317.4512 L1432.0156,317.4512 L1432.0156,320.0449 Q1432.0156,320.6543 1431.7813,320.9199 Q1431.5625,321.1699 1431.1719,321.1699 Q1430.7969,321.1699 1430.5625,320.9199 Q1430.3281,320.6543 1430.3281,320.0449 L1430.3281,319.1543 L1426.3594,319.1543 L1426.3594,321.6074 L1427.8438,321.6074 Q1427.8438,320.9512 1427.9688,320.7637 Q1428.2344,320.3574 1428.7031,320.3574 Q1429.0781,320.3574 1429.3125,320.623 Q1429.5469,320.873 1429.5469,321.4824 L1429.5469,323.4512 Q1429.5469,323.998 1429.4219,324.1855 Q1429.1563,324.5762 1428.7031,324.5762 Q1428.2344,324.5762 1427.9688,324.1699 Q1427.8438,323.9824 1427.8438,323.3105 L1426.3594,323.3105 Z " fill="#000000"/><text fill="#000000" font-family="sans-serif" font-size="14" lengthAdjust="spacing" textLength="85" x="1441.5" y="328.3105">SeverityLevel</text><line style="stroke:#181818;stroke-width:0.5;" x1="1413.5" x2="1528.5" y1="338.5137" y2="338.5137"/><text fill="#000000" font-family="sans-serif" font-size="14" lengthAdjust="spacing" textLength="79" x="1418.5" y="357.6211">NotSeriously</text><text fill="#000000" font-family="sans-serif" font-size="14" lengthAdjust="spacing" textLength="58" x="1418.5" y="376.2422">Seriously</text><line style="stroke:#181818;stroke-width:0.5;" x1="1413.5" x2="1528.5" y1="383.7559" y2="383.7559"/></g><!--class UnderstandingLevel--><g id="elem_UnderstandingLevel"><rect codeLine="71" fill="#F1F1F1" height="85.2422" id="UnderstandingLevel" rx="2.5" ry="2.5" style="stroke:#181818;stroke-width:0.5;" width="158" x="1565" y="306.5137"/><ellipse cx="1580" cy="322.5137" fill="#EB937F" rx="11" ry="11" style="stroke:#181818;stroke-width:1.0;"/><path d="M1578.8594,323.3105 L1578.8594,325.8105 L1583.1875,325.8105 L1583.1875,324.8887 Q1583.1875,324.2793 1583.4219,324.0137 Q1583.6719,323.748 1584.0469,323.748 Q1584.4219,323.748 1584.6563,324.0137 Q1584.8906,324.2793 1584.8906,324.8887 L1584.8906,327.5137 L1576.8906,327.5137 Q1576.2656,327.5137 1576,327.2793 Q1575.75,327.0449 1575.75,326.6543 Q1575.75,326.2793 1576.0156,326.0449 Q1576.2813,325.8105 1576.8906,325.8105 L1577.1563,325.8105 L1577.1563,319.1543 L1576.8906,319.1543 Q1576.2656,319.1543 1576,318.9199 Q1575.75,318.6855 1575.75,318.2949 Q1575.75,317.9199 1576,317.6855 Q1576.2656,317.4512 1576.8906,317.4512 L1584.5156,317.4512 L1584.5156,320.0449 Q1584.5156,320.6543 1584.2813,320.9199 Q1584.0625,321.1699 1583.6719,321.1699 Q1583.2969,321.1699 1583.0625,320.9199 Q1582.8281,320.6543 1582.8281,320.0449 L1582.8281,319.1543 L1578.8594,319.1543 L1578.8594,321.6074 L1580.3438,321.6074 Q1580.3438,320.9512 1580.4688,320.7637 Q1580.7344,320.3574 1581.2031,320.3574 Q1581.5781,320.3574 1581.8125,320.623 Q1582.0469,320.873 1582.0469,321.4824 L1582.0469,323.4512 Q1582.0469,323.998 1581.9219,324.1855 Q1581.6563,324.5762 1581.2031,324.5762 Q1580.7344,324.5762 1580.4688,324.1699 Q1580.3438,323.9824 1580.3438,323.3105 L1578.8594,323.3105 Z " fill="#000000"/><text fill="#000000" font-family="sans-serif" font-size="14" lengthAdjust="spacing" textLength="126" x="1594" y="328.3105">UnderstandingLevel</text><line style="stroke:#181818;stroke-width:0.5;" x1="1566" x2="1722" y1="338.5137" y2="338.5137"/><text fill="#000000" font-family="sans-serif" font-size="14" lengthAdjust="spacing" textLength="15" x="1571" y="357.6211">All</text><text fill="#000000" font-family="sans-serif" font-size="14" lengthAdjust="spacing" textLength="48" x="1571" y="376.2422">Nothing</text><line style="stroke:#181818;stroke-width:0.5;" x1="1566" x2="1722" y1="383.7559" y2="383.7559"/></g><!--class River--><g id="elem_River"><rect codeLine="77" fill="#F1F1F1" height="159.7266" id="River" rx="2.5" ry="2.5" style="stroke:#181818;stroke-width:0.5;" width="589" x="82.5" y="535.5137"/><ellipse cx="356.25" cy="551.5137" fill="#ADD1B2" rx="11" ry="11" style="stroke:#181818;stroke-width:1.0;"/><path d="M359.0156,547.3887 Q359.1719,547.1699 359.3594,547.0605 Q359.5469,546.9512 359.7656,546.9512 Q360.1406,546.9512 360.375,547.2168 Q360.6094,547.4668 360.6094,548.0762 L360.6094,549.5293 Q360.6094,550.1387 360.375,550.4043 Q360.1406,550.6699 359.7656,550.6699 Q359.4219,550.6699 359.2188,550.4668 Q359.0156,550.2793 358.9063,549.7637 Q358.8594,549.4043 358.6719,549.2168 Q358.3438,548.8418 357.7344,548.623 Q357.125,548.4043 356.5,548.4043 Q355.7344,548.4043 355.0938,548.7324 Q354.4688,549.0605 353.9688,549.8105 Q353.4844,550.5605 353.4844,551.5918 L353.4844,552.6855 Q353.4844,553.9199 354.375,554.748 Q355.2656,555.5605 356.8594,555.5605 Q357.7969,555.5605 358.4531,555.3105 Q358.8438,555.1543 359.2656,554.7168 Q359.5313,554.4512 359.6719,554.373 Q359.8281,554.2949 360.0313,554.2949 Q360.3594,554.2949 360.6094,554.5605 Q360.875,554.8105 360.875,555.1543 Q360.875,555.498 360.5313,555.9043 Q360.0313,556.4824 359.2344,556.8105 Q358.1563,557.2637 356.8594,557.2637 Q355.3438,557.2637 354.1406,556.6387 Q353.1563,556.1387 352.4688,555.0762 Q351.7813,553.998 351.7813,552.7168 L351.7813,551.5605 Q351.7813,550.2324 352.3906,549.0918 Q353.0156,547.9355 354.1094,547.3262 Q355.2031,546.7012 356.4375,546.7012 Q357.1719,546.7012 357.8125,546.873 Q358.4688,547.0293 359.0156,547.3887 Z " fill="#000000"/><text fill="#000000" font-family="sans-serif" font-size="14" lengthAdjust="spacing" textLength="33" x="376.75" y="557.3105">River</text><line style="stroke:#181818;stroke-width:0.5;" x1="83.5" x2="670.5" y1="567.5137" y2="567.5137"/><rect fill="none" height="6" style="stroke:#C82930;stroke-width:1.0;" width="6" x="90.5" y="579.3242"/><text fill="#000000" font-family="sans-serif" font-size="14" lengthAdjust="spacing" textLength="84" x="102.5" y="586.6211">name : String</text><line style="stroke:#181818;stroke-width:0.5;" x1="83.5" x2="670.5" y1="594.1348" y2="594.1348"/><ellipse cx="93.5" cy="608.9453" fill="#84BE84" rx="3" ry="3" style="stroke:#038048;stroke-width:1.0;"/><text fill="#000000" font-family="sans-serif" font-size="14" lengthAdjust="spacing" textLength="563" x="102.5" y="613.2422">say(type : Speech, message : String, toCharacter : Character, level : SeverityLevel) : void</text><ellipse cx="93.5" cy="627.5664" fill="#84BE84" rx="3" ry="3" style="stroke:#038048;stroke-width:1.0;"/><text fill="#000000" font-family="sans-serif" font-size="14" lengthAdjust="spacing" textLength="405" x="102.5" y="631.8633">say(type : Speech, message : String, level : SeverityLevel) : void</text><ellipse cx="93.5" cy="646.1875" fill="#84BE84" rx="3" ry="3" style="stroke:#038048;stroke-width:1.0;"/><text fill="#000000" font-family="sans-serif" font-size="14" lengthAdjust="spacing" textLength="91" x="102.5" y="650.4844">equals() : bool</text><ellipse cx="93.5" cy="664.8086" fill="#84BE84" rx="3" ry="3" style="stroke:#038048;stroke-width:1.0;"/><text fill="#000000" font-family="sans-serif" font-size="14" lengthAdjust="spacing" textLength="108" x="102.5" y="669.1055">toString() : String</text><ellipse cx="93.5" cy="683.4297" fill="#84BE84" rx="3" ry="3" style="stroke:#038048;stroke-width:1.0;"/><text fill="#000000" font-family="sans-serif" font-size="14" lengthAdjust="spacing" textLength="102" x="102.5" y="687.7266">hashCode() : int</text></g><!--class Sound--><g id="elem_Sound"><rect codeLine="88" fill="#F1F1F1" height="178.3477" id="Sound" rx="2.5" ry="2.5" style="stroke:#181818;stroke-width:0.5;" width="589" x="706.5" y="526.5137"/><ellipse cx="976.25" cy="542.5137" fill="#ADD1B2" rx="11" ry="11" style="stroke:#181818;stroke-width:1.0;"/><path d="M979.0156,538.3887 Q979.1719,538.1699 979.3594,538.0605 Q979.5469,537.9512 979.7656,537.9512 Q980.1406,537.9512 980.375,538.2168 Q980.6094,538.4668 980.6094,539.0762 L980.6094,540.5293 Q980.6094,541.1387 980.375,541.4043 Q980.1406,541.6699 979.7656,541.6699 Q979.4219,541.6699 979.2188,541.4668 Q979.0156,541.2793 978.9063,540.7637 Q978.8594,540.4043 978.6719,540.2168 Q978.3438,539.8418 977.7344,539.623 Q977.125,539.4043 976.5,539.4043 Q975.7344,539.4043 975.0938,539.7324 Q974.4688,540.0605 973.9688,540.8105 Q973.4844,541.5605 973.4844,542.5918 L973.4844,543.6855 Q973.4844,544.9199 974.375,545.748 Q975.2656,546.5605 976.8594,546.5605 Q977.7969,546.5605 978.4531,546.3105 Q978.8438,546.1543 979.2656,545.7168 Q979.5313,545.4512 979.6719,545.373 Q979.8281,545.2949 980.0313,545.2949 Q980.3594,545.2949 980.6094,545.5605 Q980.875,545.8105 980.875,546.1543 Q980.875,546.498 980.5313,546.9043 Q980.0313,547.4824 979.2344,547.8105 Q978.1563,548.2637 976.8594,548.2637 Q975.3438,548.2637 974.1406,547.6387 Q973.1563,547.1387 972.4688,546.0762 Q971.7813,544.998 971.7813,543.7168 L971.7813,542.5605 Q971.7813,541.2324 972.3906,540.0918 Q973.0156,538.9355 974.1094,538.3262 Q975.2031,537.7012 976.4375,537.7012 Q977.1719,537.7012 977.8125,537.873 Q978.4688,538.0293 979.0156,538.3887 Z " fill="#000000"/><text fill="#000000" font-family="sans-serif" font-size="14" lengthAdjust="spacing" textLength="41" x="996.75" y="548.3105">Sound</text><line style="stroke:#181818;stroke-width:0.5;" x1="707.5" x2="1294.5" y1="558.5137" y2="558.5137"/><rect fill="none" height="6" style="stroke:#C82930;stroke-width:1.0;" width="6" x="714.5" y="570.3242"/><text fill="#000000" font-family="sans-serif" font-size="14" lengthAdjust="spacing" textLength="84" x="726.5" y="577.6211">name : String</text><line style="stroke:#181818;stroke-width:0.5;" x1="707.5" x2="1294.5" y1="585.1348" y2="585.1348"/><ellipse cx="717.5" cy="599.9453" fill="#84BE84" rx="3" ry="3" style="stroke:#038048;stroke-width:1.0;"/><text fill="#000000" font-family="sans-serif" font-size="14" lengthAdjust="spacing" textLength="563" x="726.5" y="604.2422">say(type : Speech, message : String, toCharacter : Character, level : SeverityLevel) : void</text><ellipse cx="717.5" cy="618.5664" fill="#84BE84" rx="3" ry="3" style="stroke:#038048;stroke-width:1.0;"/><text fill="#000000" font-family="sans-serif" font-size="14" lengthAdjust="spacing" textLength="405" x="726.5" y="622.8633">say(type : Speech, message : String, level : SeverityLevel) : void</text><ellipse cx="717.5" cy="637.1875" fill="#84BE84" rx="3" ry="3" style="stroke:#038048;stroke-width:1.0;"/><text fill="#000000" font-family="sans-serif" font-size="14" lengthAdjust="spacing" textLength="88" x="726.5" y="641.4844">noSay() : void</text><ellipse cx="717.5" cy="655.8086" fill="#84BE84" rx="3" ry="3" style="stroke:#038048;stroke-width:1.0;"/><text fill="#000000" font-family="sans-serif" font-size="14" lengthAdjust="spacing" textLength="91" x="726.5" y="660.1055">equals() : bool</text><ellipse cx="717.5" cy="674.4297" fill="#84BE84" rx="3" ry="3" style="stroke:#038048;stroke-width:1.0;"/><text fill="#000000" font-family="sans-serif" font-size="14" lengthAdjust="spacing" textLength="108" x="726.5" y="678.7266">toString() : String</text><ellipse cx="717.5" cy="693.0508" fill="#84BE84" rx="3" ry="3" style="stroke:#038048;stroke-width:1.0;"/><text fill="#000000" font-family="sans-serif" font-size="14" lengthAdjust="spacing" textLength="102" x="726.5" y="697.3477">hashCode() : int</text></g><!--class Character--><g id="elem_Character"><rect codeLine="99" fill="#F1F1F1" height="159.7266" id="Character" rx="2.5" ry="2.5" style="stroke:#181818;stroke-width:0.5;" width="141" x="1083.5" y="269.0137"/><ellipse cx="1119.2" cy="285.0137" fill="#A9DCDF" rx="11" ry="11" style="stroke:#181818;stroke-width:1.0;"/><path d="M1121.3875,286.7793 L1117.2469,286.7793 L1116.825,287.8105 L1117.2469,287.8105 Q1117.8563,287.8105 1118.1219,288.0449 Q1118.3875,288.2793 1118.3875,288.6699 Q1118.3875,289.0449 1118.1219,289.2793 Q1117.8563,289.5137 1117.2469,289.5137 L1114.95,289.5137 Q1114.3406,289.5137 1114.0906,289.2793 Q1113.825,289.0449 1113.825,288.6543 Q1113.825,288.2793 1114.1063,288.0449 Q1114.3719,287.7949 1114.9969,287.8105 L1117.6688,281.1543 L1116.5594,281.1543 Q1115.95,281.1543 1115.6844,280.9199 Q1115.4188,280.6855 1115.4188,280.2949 Q1115.4188,279.9199 1115.6844,279.6855 Q1115.95,279.4512 1116.5594,279.4512 L1120.2313,279.4512 L1123.6219,287.8105 Q1124.2156,287.8105 1124.4031,287.9512 Q1124.7938,288.2168 1124.7938,288.6699 Q1124.7938,289.0449 1124.5281,289.2793 Q1124.2781,289.5137 1123.6688,289.5137 L1121.3719,289.5137 Q1120.7625,289.5137 1120.4969,289.2793 Q1120.2313,289.0449 1120.2313,288.6543 Q1120.2313,288.2793 1120.4969,288.0449 Q1120.7625,287.8105 1121.3719,287.8105 L1121.7938,287.8105 L1121.3875,286.7793 Z M1120.6688,285.0762 L1119.3094,281.7012 L1117.9344,285.0762 L1120.6688,285.0762 Z " fill="#000000"/><text fill="#000000" font-family="sans-serif" font-size="14" font-style="italic" lengthAdjust="spacing" textLength="63" x="1137.8" y="290.8105">Character</text><line style="stroke:#181818;stroke-width:0.5;" x1="1084.5" x2="1223.5" y1="301.0137" y2="301.0137"/><rect fill="none" height="6" style="stroke:#C82930;stroke-width:1.0;" width="6" x="1091.5" y="312.8242"/><text fill="#000000" font-family="sans-serif" font-size="14" lengthAdjust="spacing" textLength="84" x="1103.5" y="320.1211">name : String</text><line style="stroke:#181818;stroke-width:0.5;" x1="1084.5" x2="1223.5" y1="327.6348" y2="327.6348"/><ellipse cx="1094.5" cy="342.4453" fill="#84BE84" rx="3" ry="3" style="stroke:#038048;stroke-width:1.0;"/><text fill="#000000" font-family="sans-serif" font-size="14" lengthAdjust="spacing" textLength="115" x="1103.5" y="346.7422">getName() : String</text><ellipse cx="1094.5" cy="361.0664" fill="#84BE84" rx="3" ry="3" style="stroke:#038048;stroke-width:1.0;"/><text fill="#000000" font-family="sans-serif" font-size="14" lengthAdjust="spacing" textLength="88" x="1103.5" y="365.3633">noSay() : void</text><ellipse cx="1094.5" cy="379.6875" fill="#84BE84" rx="3" ry="3" style="stroke:#038048;stroke-width:1.0;"/><text fill="#000000" font-family="sans-serif" font-size="14" lengthAdjust="spacing" textLength="91" x="1103.5" y="383.9844">equals() : bool</text><ellipse cx="1094.5" cy="398.3086" fill="#84BE84" rx="3" ry="3" style="stroke:#038048;stroke-width:1.0;"/><text fill="#000000" font-family="sans-serif" font-size="14" lengthAdjust="spacing" textLength="108" x="1103.5" y="402.6055">toString() : String</text><ellipse cx="1094.5" cy="416.9297" fill="#84BE84" rx="3" ry="3" style="stroke:#038048;stroke-width:1.0;"/><text fill="#000000" font-family="sans-serif" font-size="14" lengthAdjust="spacing" textLength="102" x="1103.5" y="421.2266">hashCode() : int</text></g><!--class Forest--><g id="elem_Forest"><rect codeLine="109" fill="#F1F1F1" height="196.9688" id="Forest" rx="2.5" ry="2.5" style="stroke:#181818;stroke-width:0.5;" width="280" x="1331" y="517.0137"/><ellipse cx="1446.25" cy="533.0137" fill="#ADD1B2" rx="11" ry="11" style="stroke:#181818;stroke-width:1.0;"/><path d="M1449.0156,528.8887 Q1449.1719,528.6699 1449.3594,528.5605 Q1449.5469,528.4512 1449.7656,528.4512 Q1450.1406,528.4512 1450.375,528.7168 Q1450.6094,528.9668 1450.6094,529.5762 L1450.6094,531.0293 Q1450.6094,531.6387 1450.375,531.9043 Q1450.1406,532.1699 1449.7656,532.1699 Q1449.4219,532.1699 1449.2188,531.9668 Q1449.0156,531.7793 1448.9063,531.2637 Q1448.8594,530.9043 1448.6719,530.7168 Q1448.3438,530.3418 1447.7344,530.123 Q1447.125,529.9043 1446.5,529.9043 Q1445.7344,529.9043 1445.0938,530.2324 Q1444.4688,530.5605 1443.9688,531.3105 Q1443.4844,532.0605 1443.4844,533.0918 L1443.4844,534.1855 Q1443.4844,535.4199 1444.375,536.248 Q1445.2656,537.0605 1446.8594,537.0605 Q1447.7969,537.0605 1448.4531,536.8105 Q1448.8438,536.6543 1449.2656,536.2168 Q1449.5313,535.9512 1449.6719,535.873 Q1449.8281,535.7949 1450.0313,535.7949 Q1450.3594,535.7949 1450.6094,536.0605 Q1450.875,536.3105 1450.875,536.6543 Q1450.875,536.998 1450.5313,537.4043 Q1450.0313,537.9824 1449.2344,538.3105 Q1448.1563,538.7637 1446.8594,538.7637 Q1445.3438,538.7637 1444.1406,538.1387 Q1443.1563,537.6387 1442.4688,536.5762 Q1441.7813,535.498 1441.7813,534.2168 L1441.7813,533.0605 Q1441.7813,531.7324 1442.3906,530.5918 Q1443.0156,529.4355 1444.1094,528.8262 Q1445.2031,528.2012 1446.4375,528.2012 Q1447.1719,528.2012 1447.8125,528.373 Q1448.4688,528.5293 1449.0156,528.8887 Z " fill="#000000"/><text fill="#000000" font-family="sans-serif" font-size="14" lengthAdjust="spacing" textLength="41" x="1466.75" y="538.8105">Forest</text><line style="stroke:#181818;stroke-width:0.5;" x1="1332" x2="1610" y1="549.0137" y2="549.0137"/><rect fill="none" height="6" style="stroke:#C82930;stroke-width:1.0;" width="6" x="1339" y="560.8242"/><text fill="#000000" font-family="sans-serif" font-size="14" lengthAdjust="spacing" textLength="84" x="1351" y="568.1211">name : String</text><polygon fill="none" points="1342,577.4453,1346,581.4453,1342,585.4453,1338,581.4453" style="stroke:#B38D22;stroke-width:1.0;"/><text fill="#000000" font-family="sans-serif" font-size="14" lengthAdjust="spacing" textLength="154" x="1351" y="586.7422">includedItem : Character</text><line style="stroke:#181818;stroke-width:0.5;" x1="1332" x2="1610" y1="594.2559" y2="594.2559"/><ellipse cx="1342" cy="609.0664" fill="#84BE84" rx="3" ry="3" style="stroke:#038048;stroke-width:1.0;"/><text fill="#000000" font-family="sans-serif" font-size="14" lengthAdjust="spacing" textLength="115" x="1351" y="613.3633">getName() : String</text><ellipse cx="1342" cy="627.6875" fill="#84BE84" rx="3" ry="3" style="stroke:#038048;stroke-width:1.0;"/><text fill="#000000" font-family="sans-serif" font-size="14" lengthAdjust="spacing" textLength="254" x="1351" y="631.9844">setIncludes(character : Character) : void</text><ellipse cx="1342" cy="646.3086" fill="#84BE84" rx="3" ry="3" style="stroke:#038048;stroke-width:1.0;"/><text fill="#000000" font-family="sans-serif" font-size="14" lengthAdjust="spacing" textLength="131" x="1351" y="650.6055">getIncludes() : String</text><ellipse cx="1342" cy="664.9297" fill="#84BE84" rx="3" ry="3" style="stroke:#038048;stroke-width:1.0;"/><text fill="#000000" font-family="sans-serif" font-size="14" lengthAdjust="spacing" textLength="91" x="1351" y="669.2266">equals() : bool</text><ellipse cx="1342" cy="683.5508" fill="#84BE84" rx="3" ry="3" style="stroke:#038048;stroke-width:1.0;"/><text fill="#000000" font-family="sans-serif" font-size="14" lengthAdjust="spacing" textLength="108" x="1351" y="687.8477">toString() : String</text><ellipse cx="1342" cy="702.1719" fill="#84BE84" rx="3" ry="3" style="stroke:#038048;stroke-width:1.0;"/><text fill="#000000" font-family="sans-serif" font-size="14" lengthAdjust="spacing" textLength="102" x="1351" y="706.4688">hashCode() : int</text></g><!--class Decription--><g id="elem_Decription"><rect codeLine="121" fill="#F1F1F1" height="103.8633" id="Decription" rx="2.5" ry="2.5" style="stroke:#181818;stroke-width:0.5;" width="287" x="857.5" y="848.5137"/><ellipse cx="964.75" cy="864.5137" fill="#ADD1B2" rx="11" ry="11" style="stroke:#181818;stroke-width:1.0;"/><path d="M967.5156,860.3887 Q967.6719,860.1699 967.8594,860.0605 Q968.0469,859.9512 968.2656,859.9512 Q968.6406,859.9512 968.875,860.2168 Q969.1094,860.4668 969.1094,861.0762 L969.1094,862.5293 Q969.1094,863.1387 968.875,863.4043 Q968.6406,863.6699 968.2656,863.6699 Q967.9219,863.6699 967.7188,863.4668 Q967.5156,863.2793 967.4063,862.7637 Q967.3594,862.4043 967.1719,862.2168 Q966.8438,861.8418 966.2344,861.623 Q965.625,861.4043 965,861.4043 Q964.2344,861.4043 963.5938,861.7324 Q962.9688,862.0605 962.4688,862.8105 Q961.9844,863.5605 961.9844,864.5918 L961.9844,865.6855 Q961.9844,866.9199 962.875,867.748 Q963.7656,868.5605 965.3594,868.5605 Q966.2969,868.5605 966.9531,868.3105 Q967.3438,868.1543 967.7656,867.7168 Q968.0313,867.4512 968.1719,867.373 Q968.3281,867.2949 968.5313,867.2949 Q968.8594,867.2949 969.1094,867.5605 Q969.375,867.8105 969.375,868.1543 Q969.375,868.498 969.0313,868.9043 Q968.5313,869.4824 967.7344,869.8105 Q966.6563,870.2637 965.3594,870.2637 Q963.8438,870.2637 962.6406,869.6387 Q961.6563,869.1387 960.9688,868.0762 Q960.2813,866.998 960.2813,865.7168 L960.2813,864.5605 Q960.2813,863.2324 960.8906,862.0918 Q961.5156,860.9355 962.6094,860.3262 Q963.7031,859.7012 964.9375,859.7012 Q965.6719,859.7012 966.3125,859.873 Q966.9688,860.0293 967.5156,860.3887 Z " fill="#000000"/><text fill="#000000" font-family="sans-serif" font-size="14" lengthAdjust="spacing" textLength="64" x="985.25" y="870.3105">Decription</text><line style="stroke:#181818;stroke-width:0.5;" x1="858.5" x2="1143.5" y1="880.5137" y2="880.5137"/><polygon fill="none" points="868.5,890.3242,872.5,894.3242,868.5,898.3242,864.5,894.3242" style="stroke:#B38D22;stroke-width:1.0;"/><text fill="#000000" font-family="sans-serif" font-size="14" lengthAdjust="spacing" textLength="205" x="877.5" y="899.6211">decriptionList : ArrayList&lt;String&gt;</text><line style="stroke:#181818;stroke-width:0.5;" x1="858.5" x2="1143.5" y1="907.1348" y2="907.1348"/><ellipse cx="868.5" cy="921.9453" fill="#84BE84" rx="3" ry="3" style="stroke:#038048;stroke-width:1.0;"/><text fill="#000000" font-family="sans-serif" font-size="14" lengthAdjust="spacing" textLength="261" x="877.5" y="926.2422">setDecription(description : String...) : void</text><ellipse cx="868.5" cy="940.5664" fill="#84BE84" rx="3" ry="3" style="stroke:#038048;stroke-width:1.0;"/><text fill="#000000" font-family="sans-serif" font-size="14" lengthAdjust="spacing" textLength="143" x="877.5" y="944.8633">getDecription() : String</text></g><!--class Condition--><g id="elem_Condition"><rect codeLine="127" fill="#F1F1F1" height="103.8633" id="Condition" rx="2.5" ry="2.5" style="stroke:#181818;stroke-width:0.5;" width="271" x="241.5" y="848.5137"/><ellipse cx="342.75" cy="864.5137" fill="#ADD1B2" rx="11" ry="11" style="stroke:#181818;stroke-width:1.0;"/><path d="M345.5156,860.3887 Q345.6719,860.1699 345.8594,860.0605 Q346.0469,859.9512 346.2656,859.9512 Q346.6406,859.9512 346.875,860.2168 Q347.1094,860.4668 347.1094,861.0762 L347.1094,862.5293 Q347.1094,863.1387 346.875,863.4043 Q346.6406,863.6699 346.2656,863.6699 Q345.9219,863.6699 345.7188,863.4668 Q345.5156,863.2793 345.4063,862.7637 Q345.3594,862.4043 345.1719,862.2168 Q344.8438,861.8418 344.2344,861.623 Q343.625,861.4043 343,861.4043 Q342.2344,861.4043 341.5938,861.7324 Q340.9688,862.0605 340.4688,862.8105 Q339.9844,863.5605 339.9844,864.5918 L339.9844,865.6855 Q339.9844,866.9199 340.875,867.748 Q341.7656,868.5605 343.3594,868.5605 Q344.2969,868.5605 344.9531,868.3105 Q345.3438,868.1543 345.7656,867.7168 Q346.0313,867.4512 346.1719,867.373 Q346.3281,867.2949 346.5313,867.2949 Q346.8594,867.2949 347.1094,867.5605 Q347.375,867.8105 347.375,868.1543 Q347.375,868.498 347.0313,868.9043 Q346.5313,869.4824 345.7344,869.8105 Q344.6563,870.2637 343.3594,870.2637 Q341.8438,870.2637 340.6406,869.6387 Q339.6563,869.1387 338.9688,868.0762 Q338.2813,866.998 338.2813,865.7168 L338.2813,864.5605 Q338.2813,863.2324 338.8906,862.0918 Q339.5156,860.9355 340.6094,860.3262 Q341.7031,859.7012 342.9375,859.7012 Q343.6719,859.7012 344.3125,859.873 Q344.9688,860.0293 345.5156,860.3887 Z " fill="#000000"/><text fill="#000000" font-family="sans-serif" font-size="14" lengthAdjust="spacing" textLength="60" x="363.25" y="870.3105">Condition</text><line style="stroke:#181818;stroke-width:0.5;" x1="242.5" x2="511.5" y1="880.5137" y2="880.5137"/><polygon fill="none" points="252.5,890.3242,256.5,894.3242,252.5,898.3242,248.5,894.3242" style="stroke:#B38D22;stroke-width:1.0;"/><text fill="#000000" font-family="sans-serif" font-size="14" lengthAdjust="spacing" textLength="200" x="261.5" y="899.6211">conditionList : ArrayList&lt;String&gt;</text><line style="stroke:#181818;stroke-width:0.5;" x1="242.5" x2="511.5" y1="907.1348" y2="907.1348"/><ellipse cx="252.5" cy="921.9453" fill="#84BE84" rx="3" ry="3" style="stroke:#038048;stroke-width:1.0;"/><text fill="#000000" font-family="sans-serif" font-size="14" lengthAdjust="spacing" textLength="245" x="261.5" y="926.2422">setCondition(condition : String...) : void</text><ellipse cx="252.5" cy="940.5664" fill="#84BE84" rx="3" ry="3" style="stroke:#038048;stroke-width:1.0;"/><text fill="#000000" font-family="sans-serif" font-size="14" lengthAdjust="spacing" textLength="139" x="261.5" y="944.8633">getCondition() : String</text></g><!--class Person--><g id="elem_Person"><rect codeLine="2" fill="#F1F1F1" height="252.832" id="Person" rx="2.5" ry="2.5" style="stroke:#181818;stroke-width:0.5;" width="589" x="1837.5" y="489.0137"/><ellipse cx="2105.25" cy="505.0137" fill="#ADD1B2" rx="11" ry="11" style="stroke:#181818;stroke-width:1.0;"/><path d="M2108.0156,500.8887 Q2108.1719,500.6699 2108.3594,500.5605 Q2108.5469,500.4512 2108.7656,500.4512 Q2109.1406,500.4512 2109.375,500.7168 Q2109.6094,500.9668 2109.6094,501.5762 L2109.6094,503.0293 Q2109.6094,503.6387 2109.375,503.9043 Q2109.1406,504.1699 2108.7656,504.1699 Q2108.4219,504.1699 2108.2188,503.9668 Q2108.0156,503.7793 2107.9063,503.2637 Q2107.8594,502.9043 2107.6719,502.7168 Q2107.3438,502.3418 2106.7344,502.123 Q2106.125,501.9043 2105.5,501.9043 Q2104.7344,501.9043 2104.0938,502.2324 Q2103.4688,502.5605 2102.9688,503.3105 Q2102.4844,504.0605 2102.4844,505.0918 L2102.4844,506.1855 Q2102.4844,507.4199 2103.375,508.248 Q2104.2656,509.0605 2105.8594,509.0605 Q2106.7969,509.0605 2107.4531,508.8105 Q2107.8438,508.6543 2108.2656,508.2168 Q2108.5313,507.9512 2108.6719,507.873 Q2108.8281,507.7949 2109.0313,507.7949 Q2109.3594,507.7949 2109.6094,508.0605 Q2109.875,508.3105 2109.875,508.6543 Q2109.875,508.998 2109.5313,509.4043 Q2109.0313,509.9824 2108.2344,510.3105 Q2107.1563,510.7637 2105.8594,510.7637 Q2104.3438,510.7637 2103.1406,510.1387 Q2102.1563,509.6387 2101.4688,508.5762 Q2100.7813,507.498 2100.7813,506.2168 L2100.7813,505.0605 Q2100.7813,503.7324 2101.3906,502.5918 Q2102.0156,501.4355 2103.1094,500.8262 Q2104.2031,500.2012 2105.4375,500.2012 Q2106.1719,500.2012 2106.8125,500.373 Q2107.4688,500.5293 2108.0156,500.8887 Z " fill="#000000"/><text fill="#000000" font-family="sans-serif" font-size="14" lengthAdjust="spacing" textLength="45" x="2125.75" y="510.8105">Person</text><line style="stroke:#181818;stroke-width:0.5;" x1="1838.5" x2="2425.5" y1="521.0137" y2="521.0137"/><rect fill="none" height="6" style="stroke:#C82930;stroke-width:1.0;" width="6" x="1845.5" y="532.8242"/><text fill="#000000" font-family="sans-serif" font-size="14" lengthAdjust="spacing" textLength="84" x="1857.5" y="540.1211">name : String</text><line style="stroke:#181818;stroke-width:0.5;" x1="1838.5" x2="2425.5" y1="547.6348" y2="547.6348"/><ellipse cx="1848.5" cy="562.4453" fill="#84BE84" rx="3" ry="3" style="stroke:#038048;stroke-width:1.0;"/><text fill="#000000" font-family="sans-serif" font-size="14" lengthAdjust="spacing" textLength="563" x="1857.5" y="566.7422">say(type : Speech, message : String, toCharacter : Character, level : SeverityLevel) : void</text><ellipse cx="1848.5" cy="581.0664" fill="#84BE84" rx="3" ry="3" style="stroke:#038048;stroke-width:1.0;"/><text fill="#000000" font-family="sans-serif" font-size="14" lengthAdjust="spacing" textLength="405" x="1857.5" y="585.3633">say(type : Speech, message : String, level : SeverityLevel) : void</text><ellipse cx="1848.5" cy="599.6875" fill="#84BE84" rx="3" ry="3" style="stroke:#038048;stroke-width:1.0;"/><text fill="#000000" font-family="sans-serif" font-size="14" lengthAdjust="spacing" textLength="209" x="1857.5" y="603.9844">look(character : Character) : void</text><ellipse cx="1848.5" cy="618.3086" fill="#84BE84" rx="3" ry="3" style="stroke:#038048;stroke-width:1.0;"/><text fill="#000000" font-family="sans-serif" font-size="14" lengthAdjust="spacing" textLength="302" x="1857.5" y="622.6055">listen(person : Person, isListen : Boolean) : void</text><ellipse cx="1848.5" cy="636.9297" fill="#84BE84" rx="3" ry="3" style="stroke:#038048;stroke-width:1.0;"/><text fill="#000000" font-family="sans-serif" font-size="14" lengthAdjust="spacing" textLength="112" x="1857.5" y="641.2266">closeEyes() : void</text><ellipse cx="1848.5" cy="655.5508" fill="#84BE84" rx="3" ry="3" style="stroke:#038048;stroke-width:1.0;"/><text fill="#000000" font-family="sans-serif" font-size="14" lengthAdjust="spacing" textLength="111" x="1857.5" y="659.8477">openEyes() : void</text><ellipse cx="1848.5" cy="674.1719" fill="#84BE84" rx="3" ry="3" style="stroke:#038048;stroke-width:1.0;"/><text fill="#000000" font-family="sans-serif" font-size="14" lengthAdjust="spacing" textLength="145" x="1857.5" y="678.4688">sit(place : String) : void</text><ellipse cx="1848.5" cy="692.793" fill="#84BE84" rx="3" ry="3" style="stroke:#038048;stroke-width:1.0;"/><text fill="#000000" font-family="sans-serif" font-size="14" lengthAdjust="spacing" textLength="91" x="1857.5" y="697.0898">equals() : bool</text><ellipse cx="1848.5" cy="711.4141" fill="#84BE84" rx="3" ry="3" style="stroke:#038048;stroke-width:1.0;"/><text fill="#000000" font-family="sans-serif" font-size="14" lengthAdjust="spacing" textLength="108" x="1857.5" y="715.7109">toString() : String</text><ellipse cx="1848.5" cy="730.0352" fill="#84BE84" rx="3" ry="3" style="stroke:#038048;stroke-width:1.0;"/><text fill="#000000" font-family="sans-serif" font-size="14" lengthAdjust="spacing" textLength="102" x="1857.5" y="734.332">hashCode() : int</text></g><!--class Piglet--><g id="elem_Piglet"><rect codeLine="16" fill="#F1F1F1" height="196.9688" id="Piglet" rx="2.5" ry="2.5" style="stroke:#181818;stroke-width:0.5;" width="313" x="1643.5" y="802.0137"/><ellipse cx="1778.25" cy="818.0137" fill="#ADD1B2" rx="11" ry="11" style="stroke:#181818;stroke-width:1.0;"/><path d="M1781.0156,813.8887 Q1781.1719,813.6699 1781.3594,813.5605 Q1781.5469,813.4512 1781.7656,813.4512 Q1782.1406,813.4512 1782.375,813.7168 Q1782.6094,813.9668 1782.6094,814.5762 L1782.6094,816.0293 Q1782.6094,816.6387 1782.375,816.9043 Q1782.1406,817.1699 1781.7656,817.1699 Q1781.4219,817.1699 1781.2188,816.9668 Q1781.0156,816.7793 1780.9063,816.2637 Q1780.8594,815.9043 1780.6719,815.7168 Q1780.3438,815.3418 1779.7344,815.123 Q1779.125,814.9043 1778.5,814.9043 Q1777.7344,814.9043 1777.0938,815.2324 Q1776.4688,815.5605 1775.9688,816.3105 Q1775.4844,817.0605 1775.4844,818.0918 L1775.4844,819.1855 Q1775.4844,820.4199 1776.375,821.248 Q1777.2656,822.0605 1778.8594,822.0605 Q1779.7969,822.0605 1780.4531,821.8105 Q1780.8438,821.6543 1781.2656,821.2168 Q1781.5313,820.9512 1781.6719,820.873 Q1781.8281,820.7949 1782.0313,820.7949 Q1782.3594,820.7949 1782.6094,821.0605 Q1782.875,821.3105 1782.875,821.6543 Q1782.875,821.998 1782.5313,822.4043 Q1782.0313,822.9824 1781.2344,823.3105 Q1780.1563,823.7637 1778.8594,823.7637 Q1777.3438,823.7637 1776.1406,823.1387 Q1775.1563,822.6387 1774.4688,821.5762 Q1773.7813,820.498 1773.7813,819.2168 L1773.7813,818.0605 Q1773.7813,816.7324 1774.3906,815.5918 Q1775.0156,814.4355 1776.1094,813.8262 Q1777.2031,813.2012 1778.4375,813.2012 Q1779.1719,813.2012 1779.8125,813.373 Q1780.4688,813.5293 1781.0156,813.8887 Z " fill="#000000"/><text fill="#000000" font-family="sans-serif" font-size="14" lengthAdjust="spacing" textLength="35" x="1798.75" y="823.8105">Piglet</text><line style="stroke:#181818;stroke-width:0.5;" x1="1644.5" x2="1955.5" y1="834.0137" y2="834.0137"/><rect fill="none" height="6" style="stroke:#C82930;stroke-width:1.0;" width="6" x="1651.5" y="845.8242"/><text fill="#000000" font-family="sans-serif" font-size="14" lengthAdjust="spacing" textLength="84" x="1663.5" y="853.1211">name : String</text><line style="stroke:#181818;stroke-width:0.5;" x1="1644.5" x2="1955.5" y1="860.6348" y2="860.6348"/><ellipse cx="1654.5" cy="875.4453" fill="#84BE84" rx="3" ry="3" style="stroke:#038048;stroke-width:1.0;"/><text fill="#000000" font-family="sans-serif" font-size="14" lengthAdjust="spacing" textLength="198" x="1663.5" y="879.7422">nod(level : SeverityLevel) : void</text><ellipse cx="1654.5" cy="894.0664" fill="#84BE84" rx="3" ry="3" style="stroke:#038048;stroke-width:1.0;"/><text fill="#000000" font-family="sans-serif" font-size="14" lengthAdjust="spacing" textLength="287" x="1663.5" y="898.3633">understand(level : UnderstandingLevel) : void</text><ellipse cx="1654.5" cy="912.6875" fill="#84BE84" rx="3" ry="3" style="stroke:#038048;stroke-width:1.0;"/><text fill="#000000" font-family="sans-serif" font-size="14" lengthAdjust="spacing" textLength="180" x="1663.5" y="916.9844">push(person : Person) : void</text><ellipse cx="1654.5" cy="931.3086" fill="#84BE84" rx="3" ry="3" style="stroke:#038048;stroke-width:1.0;"/><text fill="#000000" font-family="sans-serif" font-size="14" lengthAdjust="spacing" textLength="82" x="1663.5" y="935.6055">settle() : void</text><ellipse cx="1654.5" cy="949.9297" fill="#84BE84" rx="3" ry="3" style="stroke:#038048;stroke-width:1.0;"/><text fill="#000000" font-family="sans-serif" font-size="14" lengthAdjust="spacing" textLength="91" x="1663.5" y="954.2266">equals() : bool</text><ellipse cx="1654.5" cy="968.5508" fill="#84BE84" rx="3" ry="3" style="stroke:#038048;stroke-width:1.0;"/><text fill="#000000" font-family="sans-serif" font-size="14" lengthAdjust="spacing" textLength="108" x="1663.5" y="972.8477">toString() : String</text><ellipse cx="1654.5" cy="987.1719" fill="#84BE84" rx="3" ry="3" style="stroke:#038048;stroke-width:1.0;"/><text fill="#000000" font-family="sans-serif" font-size="14" lengthAdjust="spacing" textLength="102" x="1663.5" y="991.4688">hashCode() : int</text></g><!--class Rabbit--><g id="elem_Rabbit"><rect codeLine="27" fill="#F1F1F1" height="141.1055" id="Rabbit" rx="2.5" ry="2.5" style="stroke:#181818;stroke-width:0.5;" width="188" x="1992" y="830.0137"/><ellipse cx="2061.25" cy="846.0137" fill="#ADD1B2" rx="11" ry="11" style="stroke:#181818;stroke-width:1.0;"/><path d="M2064.0156,841.8887 Q2064.1719,841.6699 2064.3594,841.5605 Q2064.5469,841.4512 2064.7656,841.4512 Q2065.1406,841.4512 2065.375,841.7168 Q2065.6094,841.9668 2065.6094,842.5762 L2065.6094,844.0293 Q2065.6094,844.6387 2065.375,844.9043 Q2065.1406,845.1699 2064.7656,845.1699 Q2064.4219,845.1699 2064.2188,844.9668 Q2064.0156,844.7793 2063.9063,844.2637 Q2063.8594,843.9043 2063.6719,843.7168 Q2063.3438,843.3418 2062.7344,843.123 Q2062.125,842.9043 2061.5,842.9043 Q2060.7344,842.9043 2060.0938,843.2324 Q2059.4688,843.5605 2058.9688,844.3105 Q2058.4844,845.0605 2058.4844,846.0918 L2058.4844,847.1855 Q2058.4844,848.4199 2059.375,849.248 Q2060.2656,850.0605 2061.8594,850.0605 Q2062.7969,850.0605 2063.4531,849.8105 Q2063.8438,849.6543 2064.2656,849.2168 Q2064.5313,848.9512 2064.6719,848.873 Q2064.8281,848.7949 2065.0313,848.7949 Q2065.3594,848.7949 2065.6094,849.0605 Q2065.875,849.3105 2065.875,849.6543 Q2065.875,849.998 2065.5313,850.4043 Q2065.0313,850.9824 2064.2344,851.3105 Q2063.1563,851.7637 2061.8594,851.7637 Q2060.3438,851.7637 2059.1406,851.1387 Q2058.1563,850.6387 2057.4688,849.5762 Q2056.7813,848.498 2056.7813,847.2168 L2056.7813,846.0605 Q2056.7813,844.7324 2057.3906,843.5918 Q2058.0156,842.4355 2059.1094,841.8262 Q2060.2031,841.2012 2061.4375,841.2012 Q2062.1719,841.2012 2062.8125,841.373 Q2063.4688,841.5293 2064.0156,841.8887 Z " fill="#000000"/><text fill="#000000" font-family="sans-serif" font-size="14" lengthAdjust="spacing" textLength="41" x="2081.75" y="851.8105">Rabbit</text><line style="stroke:#181818;stroke-width:0.5;" x1="1993" x2="2179" y1="862.0137" y2="862.0137"/><rect fill="none" height="6" style="stroke:#C82930;stroke-width:1.0;" width="6" x="2000" y="873.8242"/><text fill="#000000" font-family="sans-serif" font-size="14" lengthAdjust="spacing" textLength="84" x="2012" y="881.1211">name : String</text><line style="stroke:#181818;stroke-width:0.5;" x1="1993" x2="2179" y1="888.6348" y2="888.6348"/><ellipse cx="2003" cy="903.4453" fill="#84BE84" rx="3" ry="3" style="stroke:#038048;stroke-width:1.0;"/><text fill="#000000" font-family="sans-serif" font-size="14" lengthAdjust="spacing" textLength="162" x="2012" y="907.7422">ready(what : String) : void</text><ellipse cx="2003" cy="922.0664" fill="#84BE84" rx="3" ry="3" style="stroke:#038048;stroke-width:1.0;"/><text fill="#000000" font-family="sans-serif" font-size="14" lengthAdjust="spacing" textLength="91" x="2012" y="926.3633">equals() : bool</text><ellipse cx="2003" cy="940.6875" fill="#84BE84" rx="3" ry="3" style="stroke:#038048;stroke-width:1.0;"/><text fill="#000000" font-family="sans-serif" font-size="14" lengthAdjust="spacing" textLength="108" x="2012" y="944.9844">toString() : String</text><ellipse cx="2003" cy="959.3086" fill="#84BE84" rx="3" ry="3" style="stroke:#038048;stroke-width:1.0;"/><text fill="#000000" font-family="sans-serif" font-size="14" lengthAdjust="spacing" textLength="102" x="2012" y="963.6055">hashCode() : int</text></g><!--class Vinni--><g id="elem_Vinni"><rect codeLine="35" fill="#F1F1F1" height="178.3477" id="Vinni" rx="2.5" ry="2.5" style="stroke:#181818;stroke-width:0.5;" width="296" x="2215" y="811.5137"/><ellipse cx="2343.25" cy="827.5137" fill="#ADD1B2" rx="11" ry="11" style="stroke:#181818;stroke-width:1.0;"/><path d="M2346.0156,823.3887 Q2346.1719,823.1699 2346.3594,823.0605 Q2346.5469,822.9512 2346.7656,822.9512 Q2347.1406,822.9512 2347.375,823.2168 Q2347.6094,823.4668 2347.6094,824.0762 L2347.6094,825.5293 Q2347.6094,826.1387 2347.375,826.4043 Q2347.1406,826.6699 2346.7656,826.6699 Q2346.4219,826.6699 2346.2188,826.4668 Q2346.0156,826.2793 2345.9063,825.7637 Q2345.8594,825.4043 2345.6719,825.2168 Q2345.3438,824.8418 2344.7344,824.623 Q2344.125,824.4043 2343.5,824.4043 Q2342.7344,824.4043 2342.0938,824.7324 Q2341.4688,825.0605 2340.9688,825.8105 Q2340.4844,826.5605 2340.4844,827.5918 L2340.4844,828.6855 Q2340.4844,829.9199 2341.375,830.748 Q2342.2656,831.5605 2343.8594,831.5605 Q2344.7969,831.5605 2345.4531,831.3105 Q2345.8438,831.1543 2346.2656,830.7168 Q2346.5313,830.4512 2346.6719,830.373 Q2346.8281,830.2949 2347.0313,830.2949 Q2347.3594,830.2949 2347.6094,830.5605 Q2347.875,830.8105 2347.875,831.1543 Q2347.875,831.498 2347.5313,831.9043 Q2347.0313,832.4824 2346.2344,832.8105 Q2345.1563,833.2637 2343.8594,833.2637 Q2342.3438,833.2637 2341.1406,832.6387 Q2340.1563,832.1387 2339.4688,831.0762 Q2338.7813,829.998 2338.7813,828.7168 L2338.7813,827.5605 Q2338.7813,826.2324 2339.3906,825.0918 Q2340.0156,823.9355 2341.1094,823.3262 Q2342.2031,822.7012 2343.4375,822.7012 Q2344.1719,822.7012 2344.8125,822.873 Q2345.4688,823.0293 2346.0156,823.3887 Z " fill="#000000"/><text fill="#000000" font-family="sans-serif" font-size="14" lengthAdjust="spacing" textLength="31" x="2363.75" y="833.3105">Vinni</text><line style="stroke:#181818;stroke-width:0.5;" x1="2216" x2="2510" y1="843.5137" y2="843.5137"/><rect fill="none" height="6" style="stroke:#C82930;stroke-width:1.0;" width="6" x="2223" y="855.3242"/><text fill="#000000" font-family="sans-serif" font-size="14" lengthAdjust="spacing" textLength="84" x="2235" y="862.6211">name : String</text><line style="stroke:#181818;stroke-width:0.5;" x1="2216" x2="2510" y1="870.1348" y2="870.1348"/><ellipse cx="2226" cy="884.9453" fill="#84BE84" rx="3" ry="3" style="stroke:#038048;stroke-width:1.0;"/><text fill="#000000" font-family="sans-serif" font-size="14" lengthAdjust="spacing" textLength="243" x="2235" y="889.2422">takePosition(description : String) : void</text><ellipse cx="2226" cy="903.5664" fill="#84BE84" rx="3" ry="3" style="stroke:#038048;stroke-width:1.0;"/><text fill="#000000" font-family="sans-serif" font-size="14" lengthAdjust="spacing" textLength="100" x="2235" y="907.8633">standUp() : void</text><ellipse cx="2226" cy="922.1875" fill="#84BE84" rx="3" ry="3" style="stroke:#038048;stroke-width:1.0;"/><text fill="#000000" font-family="sans-serif" font-size="14" lengthAdjust="spacing" textLength="270" x="2235" y="926.4844">feel(feelings : String, reason : String) : void</text><ellipse cx="2226" cy="940.8086" fill="#84BE84" rx="3" ry="3" style="stroke:#038048;stroke-width:1.0;"/><text fill="#000000" font-family="sans-serif" font-size="14" lengthAdjust="spacing" textLength="91" x="2235" y="945.1055">equals() : bool</text><ellipse cx="2226" cy="959.4297" fill="#84BE84" rx="3" ry="3" style="stroke:#038048;stroke-width:1.0;"/><text fill="#000000" font-family="sans-serif" font-size="14" lengthAdjust="spacing" textLength="108" x="2235" y="963.7266">toString() : String</text><ellipse cx="2226" cy="978.0508" fill="#84BE84" rx="3" ry="3" style="stroke:#038048;stroke-width:1.0;"/><text fill="#000000" font-family="sans-serif" font-size="14" lengthAdjust="spacing" textLength="102" x="2235" y="982.3477">hashCode() : int</text></g><!--class Tiger--><g id="elem_Tiger"><rect codeLine="45" fill="#F1F1F1" height="141.1055" id="Tiger" rx="2.5" ry="2.5" style="stroke:#181818;stroke-width:0.5;" width="204" x="2546" y="830.0137"/><ellipse cx="2627.25" cy="846.0137" fill="#ADD1B2" rx="11" ry="11" style="stroke:#181818;stroke-width:1.0;"/><path d="M2630.0156,841.8887 Q2630.1719,841.6699 2630.3594,841.5605 Q2630.5469,841.4512 2630.7656,841.4512 Q2631.1406,841.4512 2631.375,841.7168 Q2631.6094,841.9668 2631.6094,842.5762 L2631.6094,844.0293 Q2631.6094,844.6387 2631.375,844.9043 Q2631.1406,845.1699 2630.7656,845.1699 Q2630.4219,845.1699 2630.2188,844.9668 Q2630.0156,844.7793 2629.9063,844.2637 Q2629.8594,843.9043 2629.6719,843.7168 Q2629.3438,843.3418 2628.7344,843.123 Q2628.125,842.9043 2627.5,842.9043 Q2626.7344,842.9043 2626.0938,843.2324 Q2625.4688,843.5605 2624.9688,844.3105 Q2624.4844,845.0605 2624.4844,846.0918 L2624.4844,847.1855 Q2624.4844,848.4199 2625.375,849.248 Q2626.2656,850.0605 2627.8594,850.0605 Q2628.7969,850.0605 2629.4531,849.8105 Q2629.8438,849.6543 2630.2656,849.2168 Q2630.5313,848.9512 2630.6719,848.873 Q2630.8281,848.7949 2631.0313,848.7949 Q2631.3594,848.7949 2631.6094,849.0605 Q2631.875,849.3105 2631.875,849.6543 Q2631.875,849.998 2631.5313,850.4043 Q2631.0313,850.9824 2630.2344,851.3105 Q2629.1563,851.7637 2627.8594,851.7637 Q2626.3438,851.7637 2625.1406,851.1387 Q2624.1563,850.6387 2623.4688,849.5762 Q2622.7813,848.498 2622.7813,847.2168 L2622.7813,846.0605 Q2622.7813,844.7324 2623.3906,843.5918 Q2624.0156,842.4355 2625.1094,841.8262 Q2626.2031,841.2012 2627.4375,841.2012 Q2628.1719,841.2012 2628.8125,841.373 Q2629.4688,841.5293 2630.0156,841.8887 Z " fill="#000000"/><text fill="#000000" font-family="sans-serif" font-size="14" lengthAdjust="spacing" textLength="33" x="2647.75" y="851.8105">Tiger</text><line style="stroke:#181818;stroke-width:0.5;" x1="2547" x2="2749" y1="862.0137" y2="862.0137"/><rect fill="none" height="6" style="stroke:#C82930;stroke-width:1.0;" width="6" x="2554" y="873.8242"/><text fill="#000000" font-family="sans-serif" font-size="14" lengthAdjust="spacing" textLength="84" x="2566" y="881.1211">name : String</text><line style="stroke:#181818;stroke-width:0.5;" x1="2547" x2="2749" y1="888.6348" y2="888.6348"/><ellipse cx="2557" cy="903.4453" fill="#84BE84" rx="3" ry="3" style="stroke:#038048;stroke-width:1.0;"/><text fill="#000000" font-family="sans-serif" font-size="14" lengthAdjust="spacing" textLength="178" x="2566" y="907.7422">beWean(rank : String) : void</text><ellipse cx="2557" cy="922.0664" fill="#84BE84" rx="3" ry="3" style="stroke:#038048;stroke-width:1.0;"/><text fill="#000000" font-family="sans-serif" font-size="14" lengthAdjust="spacing" textLength="91" x="2566" y="926.3633">equals() : bool</text><ellipse cx="2557" cy="940.6875" fill="#84BE84" rx="3" ry="3" style="stroke:#038048;stroke-width:1.0;"/><text fill="#000000" font-family="sans-serif" font-size="14" lengthAdjust="spacing" textLength="108" x="2566" y="944.9844">toString() : String</text><ellipse cx="2557" cy="959.3086" fill="#84BE84" rx="3" ry="3" style="stroke:#038048;stroke-width:1.0;"/><text fill="#000000" font-family="sans-serif" font-size="14" lengthAdjust="spacing" textLength="102" x="2566" y="963.6055">hashCode() : int</text></g><!--class Title--><g id="elem_Title"><rect codeLine="53" fill="#F1F1F1" height="103.8633" id="Title" rx="2.5" ry="2.5" style="stroke:#181818;stroke-width:0.5;" width="191" x="2552.5" y="1059.0137"/><ellipse cx="2630.25" cy="1075.0137" fill="#ADD1B2" rx="11" ry="11" style="stroke:#181818;stroke-width:1.0;"/><path d="M2633.0156,1070.8887 Q2633.1719,1070.6699 2633.3594,1070.5605 Q2633.5469,1070.4512 2633.7656,1070.4512 Q2634.1406,1070.4512 2634.375,1070.7168 Q2634.6094,1070.9668 2634.6094,1071.5762 L2634.6094,1073.0293 Q2634.6094,1073.6387 2634.375,1073.9043 Q2634.1406,1074.1699 2633.7656,1074.1699 Q2633.4219,1074.1699 2633.2188,1073.9668 Q2633.0156,1073.7793 2632.9063,1073.2637 Q2632.8594,1072.9043 2632.6719,1072.7168 Q2632.3438,1072.3418 2631.7344,1072.123 Q2631.125,1071.9043 2630.5,1071.9043 Q2629.7344,1071.9043 2629.0938,1072.2324 Q2628.4688,1072.5605 2627.9688,1073.3105 Q2627.4844,1074.0605 2627.4844,1075.0918 L2627.4844,1076.1855 Q2627.4844,1077.4199 2628.375,1078.248 Q2629.2656,1079.0605 2630.8594,1079.0605 Q2631.7969,1079.0605 2632.4531,1078.8105 Q2632.8438,1078.6543 2633.2656,1078.2168 Q2633.5313,1077.9512 2633.6719,1077.873 Q2633.8281,1077.7949 2634.0313,1077.7949 Q2634.3594,1077.7949 2634.6094,1078.0605 Q2634.875,1078.3105 2634.875,1078.6543 Q2634.875,1078.998 2634.5313,1079.4043 Q2634.0313,1079.9824 2633.2344,1080.3105 Q2632.1563,1080.7637 2630.8594,1080.7637 Q2629.3438,1080.7637 2628.1406,1080.1387 Q2627.1563,1079.6387 2626.4688,1078.5762 Q2625.7813,1077.498 2625.7813,1076.2168 L2625.7813,1075.0605 Q2625.7813,1073.7324 2626.3906,1072.5918 Q2627.0156,1071.4355 2628.1094,1070.8262 Q2629.2031,1070.2012 2630.4375,1070.2012 Q2631.1719,1070.2012 2631.8125,1070.373 Q2632.4688,1070.5293 2633.0156,1070.8887 Z " fill="#000000"/><text fill="#000000" font-family="sans-serif" font-size="14" lengthAdjust="spacing" textLength="27" x="2650.75" y="1080.8105">Title</text><line style="stroke:#181818;stroke-width:0.5;" x1="2553.5" x2="2742.5" y1="1091.0137" y2="1091.0137"/><rect fill="none" height="6" style="stroke:#C82930;stroke-width:1.0;" width="6" x="2560.5" y="1102.8242"/><text fill="#000000" font-family="sans-serif" font-size="14" lengthAdjust="spacing" textLength="107" x="2572.5" y="1110.1211">titleName : String</text><line style="stroke:#181818;stroke-width:0.5;" x1="2553.5" x2="2742.5" y1="1117.6348" y2="1117.6348"/><ellipse cx="2563.5" cy="1132.4453" fill="#84BE84" rx="3" ry="3" style="stroke:#038048;stroke-width:1.0;"/><text fill="#000000" font-family="sans-serif" font-size="14" lengthAdjust="spacing" textLength="165" x="2572.5" y="1136.7422">setTitle(title : String) : void</text><ellipse cx="2563.5" cy="1151.0664" fill="#84BE84" rx="3" ry="3" style="stroke:#038048;stroke-width:1.0;"/><text fill="#000000" font-family="sans-serif" font-size="14" lengthAdjust="spacing" textLength="106" x="2572.5" y="1155.3633">getTitle() : String</text></g><!--class Speech--><g id="elem_Speech"><rect codeLine="138" fill="#F1F1F1" height="103.8633" id="Speech" rx="2.5" ry="2.5" style="stroke:#181818;stroke-width:0.5;" width="80" x="2694" y="88.0137"/><ellipse cx="2709" cy="104.0137" fill="#EB937F" rx="11" ry="11" style="stroke:#181818;stroke-width:1.0;"/><path d="M2707.8594,104.8105 L2707.8594,107.3105 L2712.1875,107.3105 L2712.1875,106.3887 Q2712.1875,105.7793 2712.4219,105.5137 Q2712.6719,105.248 2713.0469,105.248 Q2713.4219,105.248 2713.6563,105.5137 Q2713.8906,105.7793 2713.8906,106.3887 L2713.8906,109.0137 L2705.8906,109.0137 Q2705.2656,109.0137 2705,108.7793 Q2704.75,108.5449 2704.75,108.1543 Q2704.75,107.7793 2705.0156,107.5449 Q2705.2813,107.3105 2705.8906,107.3105 L2706.1563,107.3105 L2706.1563,100.6543 L2705.8906,100.6543 Q2705.2656,100.6543 2705,100.4199 Q2704.75,100.1855 2704.75,99.7949 Q2704.75,99.4199 2705,99.1855 Q2705.2656,98.9512 2705.8906,98.9512 L2713.5156,98.9512 L2713.5156,101.5449 Q2713.5156,102.1543 2713.2813,102.4199 Q2713.0625,102.6699 2712.6719,102.6699 Q2712.2969,102.6699 2712.0625,102.4199 Q2711.8281,102.1543 2711.8281,101.5449 L2711.8281,100.6543 L2707.8594,100.6543 L2707.8594,103.1074 L2709.3438,103.1074 Q2709.3438,102.4512 2709.4688,102.2637 Q2709.7344,101.8574 2710.2031,101.8574 Q2710.5781,101.8574 2710.8125,102.123 Q2711.0469,102.373 2711.0469,102.9824 L2711.0469,104.9512 Q2711.0469,105.498 2710.9219,105.6855 Q2710.6563,106.0762 2710.2031,106.0762 Q2709.7344,106.0762 2709.4688,105.6699 Q2709.3438,105.4824 2709.3438,104.8105 L2707.8594,104.8105 Z " fill="#000000"/><text fill="#000000" font-family="sans-serif" font-size="14" lengthAdjust="spacing" textLength="48" x="2723" y="109.8105">Speech</text><line style="stroke:#181818;stroke-width:0.5;" x1="2695" x2="2773" y1="120.0137" y2="120.0137"/><text fill="#000000" font-family="sans-serif" font-size="14" lengthAdjust="spacing" textLength="23" x="2700" y="139.1211">Tell</text><text fill="#000000" font-family="sans-serif" font-size="14" lengthAdjust="spacing" textLength="23" x="2700" y="157.7422">Ask</text><text fill="#000000" font-family="sans-serif" font-size="14" lengthAdjust="spacing" textLength="46" x="2700" y="176.3633">Answer</text><line style="stroke:#181818;stroke-width:0.5;" x1="2695" x2="2773" y1="183.877" y2="183.877"/></g><!--class Talkable--><g id="elem_Talkable"><rect codeLine="145" fill="#F1F1F1" height="103.8633" id="Talkable" rx="2.5" ry="2.5" style="stroke:#181818;stroke-width:0.5;" width="589" x="1200.5" y="88.0137"/><ellipse cx="1463.25" cy="104.0137" fill="#B4A7E5" rx="11" ry="11" style="stroke:#181818;stroke-width:1.0;"/><path d="M1464.2031,100.6543 L1464.2031,107.3105 L1465.9219,107.3105 Q1466.5313,107.3105 1466.7969,107.5449 Q1467.0625,107.7793 1467.0625,108.1699 Q1467.0625,108.5449 1466.7969,108.7793 Q1466.5313,109.0137 1465.9219,109.0137 L1460.7813,109.0137 Q1460.1719,109.0137 1459.9063,108.7793 Q1459.6406,108.5449 1459.6406,108.1543 Q1459.6406,107.7793 1459.9063,107.5449 Q1460.1719,107.3105 1460.7813,107.3105 L1462.5,107.3105 L1462.5,100.6543 L1460.7813,100.6543 Q1460.1719,100.6543 1459.9063,100.4199 Q1459.6406,100.1855 1459.6406,99.7949 Q1459.6406,99.4199 1459.9063,99.1855 Q1460.1719,98.9512 1460.7813,98.9512 L1465.9219,98.9512 Q1466.5313,98.9512 1466.7969,99.1855 Q1467.0625,99.4199 1467.0625,99.7949 Q1467.0625,100.1855 1466.7969,100.4199 Q1466.5313,100.6543 1465.9219,100.6543 L1464.2031,100.6543 Z " fill="#000000"/><text fill="#000000" font-family="sans-serif" font-size="14" font-style="italic" lengthAdjust="spacing" textLength="55" x="1483.75" y="109.8105">Talkable</text><line style="stroke:#181818;stroke-width:0.5;" x1="1201.5" x2="1788.5" y1="120.0137" y2="120.0137"/><line style="stroke:#181818;stroke-width:0.5;" x1="1201.5" x2="1788.5" y1="128.0137" y2="128.0137"/><ellipse cx="1211.5" cy="142.8242" fill="#84BE84" rx="3" ry="3" style="stroke:#038048;stroke-width:1.0;"/><text fill="#000000" font-family="sans-serif" font-size="14" lengthAdjust="spacing" textLength="563" x="1220.5" y="147.1211">say(type : Speech, message : String, toCharacter : Character, level : SeverityLevel) : void</text><ellipse cx="1211.5" cy="161.4453" fill="#84BE84" rx="3" ry="3" style="stroke:#038048;stroke-width:1.0;"/><text fill="#000000" font-family="sans-serif" font-size="14" lengthAdjust="spacing" textLength="405" x="1220.5" y="165.7422">say(type : Speech, message : String, level : SeverityLevel) : void</text><ellipse cx="1211.5" cy="180.0664" fill="#84BE84" rx="3" ry="3" style="stroke:#038048;stroke-width:1.0;"/><text fill="#000000" font-family="sans-serif" font-size="14" lengthAdjust="spacing" textLength="88" x="1220.5" y="184.3633">noSay() : void</text></g><!--class Loving--><g id="elem_Loving"><rect codeLine="151" fill="#F1F1F1" height="66.6211" id="Loving" rx="2.5" ry="2.5" style="stroke:#181818;stroke-width:0.5;" width="201" x="1824.5" y="106.5137"/><ellipse cx="1900.25" cy="122.5137" fill="#B4A7E5" rx="11" ry="11" style="stroke:#181818;stroke-width:1.0;"/><path d="M1901.2031,119.1543 L1901.2031,125.8105 L1902.9219,125.8105 Q1903.5313,125.8105 1903.7969,126.0449 Q1904.0625,126.2793 1904.0625,126.6699 Q1904.0625,127.0449 1903.7969,127.2793 Q1903.5313,127.5137 1902.9219,127.5137 L1897.7813,127.5137 Q1897.1719,127.5137 1896.9063,127.2793 Q1896.6406,127.0449 1896.6406,126.6543 Q1896.6406,126.2793 1896.9063,126.0449 Q1897.1719,125.8105 1897.7813,125.8105 L1899.5,125.8105 L1899.5,119.1543 L1897.7813,119.1543 Q1897.1719,119.1543 1896.9063,118.9199 Q1896.6406,118.6855 1896.6406,118.2949 Q1896.6406,117.9199 1896.9063,117.6855 Q1897.1719,117.4512 1897.7813,117.4512 L1902.9219,117.4512 Q1903.5313,117.4512 1903.7969,117.6855 Q1904.0625,117.9199 1904.0625,118.2949 Q1904.0625,118.6855 1903.7969,118.9199 Q1903.5313,119.1543 1902.9219,119.1543 L1901.2031,119.1543 Z " fill="#000000"/><text fill="#000000" font-family="sans-serif" font-size="14" font-style="italic" lengthAdjust="spacing" textLength="41" x="1920.75" y="128.3105">Loving</text><line style="stroke:#181818;stroke-width:0.5;" x1="1825.5" x2="2024.5" y1="138.5137" y2="138.5137"/><line style="stroke:#181818;stroke-width:0.5;" x1="1825.5" x2="2024.5" y1="146.5137" y2="146.5137"/><ellipse cx="1835.5" cy="161.3242" fill="#84BE84" rx="3" ry="3" style="stroke:#038048;stroke-width:1.0;"/><text fill="#000000" font-family="sans-serif" font-size="14" lengthAdjust="spacing" textLength="175" x="1844.5" y="165.6211">love(person : Person) : void</text></g><!--class Lookable--><g id="elem_Lookable"><rect codeLine="154" fill="#F1F1F1" height="66.6211" id="Lookable" rx="2.5" ry="2.5" style="stroke:#181818;stroke-width:0.5;" width="235" x="2060.5" y="106.5137"/><ellipse cx="2144.25" cy="122.5137" fill="#B4A7E5" rx="11" ry="11" style="stroke:#181818;stroke-width:1.0;"/><path d="M2145.2031,119.1543 L2145.2031,125.8105 L2146.9219,125.8105 Q2147.5313,125.8105 2147.7969,126.0449 Q2148.0625,126.2793 2148.0625,126.6699 Q2148.0625,127.0449 2147.7969,127.2793 Q2147.5313,127.5137 2146.9219,127.5137 L2141.7813,127.5137 Q2141.1719,127.5137 2140.9063,127.2793 Q2140.6406,127.0449 2140.6406,126.6543 Q2140.6406,126.2793 2140.9063,126.0449 Q2141.1719,125.8105 2141.7813,125.8105 L2143.5,125.8105 L2143.5,119.1543 L2141.7813,119.1543 Q2141.1719,119.1543 2140.9063,118.9199 Q2140.6406,118.6855 2140.6406,118.2949 Q2140.6406,117.9199 2140.9063,117.6855 Q2141.1719,117.4512 2141.7813,117.4512 L2146.9219,117.4512 Q2147.5313,117.4512 2147.7969,117.6855 Q2148.0625,117.9199 2148.0625,118.2949 Q2148.0625,118.6855 2147.7969,118.9199 Q2147.5313,119.1543 2146.9219,119.1543 L2145.2031,119.1543 Z " fill="#000000"/><text fill="#000000" font-family="sans-serif" font-size="14" font-style="italic" lengthAdjust="spacing" textLength="59" x="2164.75" y="128.3105">Lookable</text><line style="stroke:#181818;stroke-width:0.5;" x1="2061.5" x2="2294.5" y1="138.5137" y2="138.5137"/><line style="stroke:#181818;stroke-width:0.5;" x1="2061.5" x2="2294.5" y1="146.5137" y2="146.5137"/><ellipse cx="2071.5" cy="161.3242" fill="#84BE84" rx="3" ry="3" style="stroke:#038048;stroke-width:1.0;"/><text fill="#000000" font-family="sans-serif" font-size="14" lengthAdjust="spacing" textLength="209" x="2080.5" y="165.6211">look(&#1089;haracter : Character) : void</text></g><!--class Perceptionable--><g id="elem_Perceptionable"><rect codeLine="157" fill="#F1F1F1" height="103.8633" id="Perceptionable" rx="2.5" ry="2.5" style="stroke:#181818;stroke-width:0.5;" width="328" x="2331" y="88.0137"/><ellipse cx="2443.25" cy="104.0137" fill="#B4A7E5" rx="11" ry="11" style="stroke:#181818;stroke-width:1.0;"/><path d="M2444.2031,100.6543 L2444.2031,107.3105 L2445.9219,107.3105 Q2446.5313,107.3105 2446.7969,107.5449 Q2447.0625,107.7793 2447.0625,108.1699 Q2447.0625,108.5449 2446.7969,108.7793 Q2446.5313,109.0137 2445.9219,109.0137 L2440.7813,109.0137 Q2440.1719,109.0137 2439.9063,108.7793 Q2439.6406,108.5449 2439.6406,108.1543 Q2439.6406,107.7793 2439.9063,107.5449 Q2440.1719,107.3105 2440.7813,107.3105 L2442.5,107.3105 L2442.5,100.6543 L2440.7813,100.6543 Q2440.1719,100.6543 2439.9063,100.4199 Q2439.6406,100.1855 2439.6406,99.7949 Q2439.6406,99.4199 2439.9063,99.1855 Q2440.1719,98.9512 2440.7813,98.9512 L2445.9219,98.9512 Q2446.5313,98.9512 2446.7969,99.1855 Q2447.0625,99.4199 2447.0625,99.7949 Q2447.0625,100.1855 2446.7969,100.4199 Q2446.5313,100.6543 2445.9219,100.6543 L2444.2031,100.6543 Z " fill="#000000"/><text fill="#000000" font-family="sans-serif" font-size="14" font-style="italic" lengthAdjust="spacing" textLength="95" x="2463.75" y="109.8105">Perceptionable</text><line style="stroke:#181818;stroke-width:0.5;" x1="2332" x2="2658" y1="120.0137" y2="120.0137"/><line style="stroke:#181818;stroke-width:0.5;" x1="2332" x2="2658" y1="128.0137" y2="128.0137"/><ellipse cx="2342" cy="142.8242" fill="#84BE84" rx="3" ry="3" style="stroke:#038048;stroke-width:1.0;"/><text fill="#000000" font-family="sans-serif" font-size="14" lengthAdjust="spacing" textLength="302" x="2351" y="147.1211">listen(person : Person, isListen : Boolean) : void</text><ellipse cx="2342" cy="161.4453" fill="#84BE84" rx="3" ry="3" style="stroke:#038048;stroke-width:1.0;"/><text fill="#000000" font-family="sans-serif" font-size="14" lengthAdjust="spacing" textLength="112" x="2351" y="165.7422">closeEyes() : void</text><ellipse cx="2342" cy="180.0664" fill="#84BE84" rx="3" ry="3" style="stroke:#038048;stroke-width:1.0;"/><text fill="#000000" font-family="sans-serif" font-size="14" lengthAdjust="spacing" textLength="111" x="2351" y="184.3633">openEyes() : void</text></g><!--class RuntimeException--><g id="elem_RuntimeException"><rect codeLine="171" fill="#F1F1F1" height="48" id="RuntimeException" rx="2.5" ry="2.5" style="stroke:#181818;stroke-width:0.5;" width="145" x="684.5" y="116.0137"/><ellipse cx="699.5" cy="132.0137" fill="#ADD1B2" rx="11" ry="11" style="stroke:#181818;stroke-width:1.0;"/><path d="M702.2656,127.8887 Q702.4219,127.6699 702.6094,127.5605 Q702.7969,127.4512 703.0156,127.4512 Q703.3906,127.4512 703.625,127.7168 Q703.8594,127.9668 703.8594,128.5762 L703.8594,130.0293 Q703.8594,130.6387 703.625,130.9043 Q703.3906,131.1699 703.0156,131.1699 Q702.6719,131.1699 702.4688,130.9668 Q702.2656,130.7793 702.1563,130.2637 Q702.1094,129.9043 701.9219,129.7168 Q701.5938,129.3418 700.9844,129.123 Q700.375,128.9043 699.75,128.9043 Q698.9844,128.9043 698.3438,129.2324 Q697.7188,129.5605 697.2188,130.3105 Q696.7344,131.0605 696.7344,132.0918 L696.7344,133.1855 Q696.7344,134.4199 697.625,135.248 Q698.5156,136.0605 700.1094,136.0605 Q701.0469,136.0605 701.7031,135.8105 Q702.0938,135.6543 702.5156,135.2168 Q702.7813,134.9512 702.9219,134.873 Q703.0781,134.7949 703.2813,134.7949 Q703.6094,134.7949 703.8594,135.0605 Q704.125,135.3105 704.125,135.6543 Q704.125,135.998 703.7813,136.4043 Q703.2813,136.9824 702.4844,137.3105 Q701.4063,137.7637 700.1094,137.7637 Q698.5938,137.7637 697.3906,137.1387 Q696.4063,136.6387 695.7188,135.5762 Q695.0313,134.498 695.0313,133.2168 L695.0313,132.0605 Q695.0313,130.7324 695.6406,129.5918 Q696.2656,128.4355 697.3594,127.8262 Q698.4531,127.2012 699.6875,127.2012 Q700.4219,127.2012 701.0625,127.373 Q701.7188,127.5293 702.2656,127.8887 Z " fill="#000000"/><text fill="#000000" font-family="sans-serif" font-size="14" lengthAdjust="spacing" textLength="113" x="713.5" y="137.8105">RuntimeException</text><line style="stroke:#181818;stroke-width:0.5;" x1="685.5" x2="828.5" y1="148.0137" y2="148.0137"/><line style="stroke:#181818;stroke-width:0.5;" x1="685.5" x2="828.5" y1="156.0137" y2="156.0137"/></g><!--class Exception--><g id="elem_Exception"><rect codeLine="172" fill="#F1F1F1" height="48" id="Exception" rx="2.5" ry="2.5" style="stroke:#181818;stroke-width:0.5;" width="93" x="206.5" y="116.0137"/><ellipse cx="221.5" cy="132.0137" fill="#ADD1B2" rx="11" ry="11" style="stroke:#181818;stroke-width:1.0;"/><path d="M224.2656,127.8887 Q224.4219,127.6699 224.6094,127.5605 Q224.7969,127.4512 225.0156,127.4512 Q225.3906,127.4512 225.625,127.7168 Q225.8594,127.9668 225.8594,128.5762 L225.8594,130.0293 Q225.8594,130.6387 225.625,130.9043 Q225.3906,131.1699 225.0156,131.1699 Q224.6719,131.1699 224.4688,130.9668 Q224.2656,130.7793 224.1563,130.2637 Q224.1094,129.9043 223.9219,129.7168 Q223.5938,129.3418 222.9844,129.123 Q222.375,128.9043 221.75,128.9043 Q220.9844,128.9043 220.3438,129.2324 Q219.7188,129.5605 219.2188,130.3105 Q218.7344,131.0605 218.7344,132.0918 L218.7344,133.1855 Q218.7344,134.4199 219.625,135.248 Q220.5156,136.0605 222.1094,136.0605 Q223.0469,136.0605 223.7031,135.8105 Q224.0938,135.6543 224.5156,135.2168 Q224.7813,134.9512 224.9219,134.873 Q225.0781,134.7949 225.2813,134.7949 Q225.6094,134.7949 225.8594,135.0605 Q226.125,135.3105 226.125,135.6543 Q226.125,135.998 225.7813,136.4043 Q225.2813,136.9824 224.4844,137.3105 Q223.4063,137.7637 222.1094,137.7637 Q220.5938,137.7637 219.3906,137.1387 Q218.4063,136.6387 217.7188,135.5762 Q217.0313,134.498 217.0313,133.2168 L217.0313,132.0605 Q217.0313,130.7324 217.6406,129.5918 Q218.2656,128.4355 219.3594,127.8262 Q220.4531,127.2012 221.6875,127.2012 Q222.4219,127.2012 223.0625,127.373 Q223.7188,127.5293 224.2656,127.8887 Z " fill="#000000"/><text fill="#000000" font-family="sans-serif" font-size="14" lengthAdjust="spacing" textLength="61" x="235.5" y="137.8105">Exception</text><line style="stroke:#181818;stroke-width:0.5;" x1="207.5" x2="298.5" y1="148.0137" y2="148.0137"/><line style="stroke:#181818;stroke-width:0.5;" x1="207.5" x2="298.5" y1="156.0137" y2="156.0137"/></g><!--class NameError--><g id="elem_NameError"><rect codeLine="173" fill="#F1F1F1" height="66.6211" id="NameError" rx="2.5" ry="2.5" style="stroke:#181818;stroke-width:0.5;" width="279" x="864.5" y="106.5137"/><ellipse cx="965.75" cy="122.5137" fill="#ADD1B2" rx="11" ry="11" style="stroke:#181818;stroke-width:1.0;"/><path d="M968.5156,118.3887 Q968.6719,118.1699 968.8594,118.0605 Q969.0469,117.9512 969.2656,117.9512 Q969.6406,117.9512 969.875,118.2168 Q970.1094,118.4668 970.1094,119.0762 L970.1094,120.5293 Q970.1094,121.1387 969.875,121.4043 Q969.6406,121.6699 969.2656,121.6699 Q968.9219,121.6699 968.7188,121.4668 Q968.5156,121.2793 968.4063,120.7637 Q968.3594,120.4043 968.1719,120.2168 Q967.8438,119.8418 967.2344,119.623 Q966.625,119.4043 966,119.4043 Q965.2344,119.4043 964.5938,119.7324 Q963.9688,120.0605 963.4688,120.8105 Q962.9844,121.5605 962.9844,122.5918 L962.9844,123.6855 Q962.9844,124.9199 963.875,125.748 Q964.7656,126.5605 966.3594,126.5605 Q967.2969,126.5605 967.9531,126.3105 Q968.3438,126.1543 968.7656,125.7168 Q969.0313,125.4512 969.1719,125.373 Q969.3281,125.2949 969.5313,125.2949 Q969.8594,125.2949 970.1094,125.5605 Q970.375,125.8105 970.375,126.1543 Q970.375,126.498 970.0313,126.9043 Q969.5313,127.4824 968.7344,127.8105 Q967.6563,128.2637 966.3594,128.2637 Q964.8438,128.2637 963.6406,127.6387 Q962.6563,127.1387 961.9688,126.0762 Q961.2813,124.998 961.2813,123.7168 L961.2813,122.5605 Q961.2813,121.2324 961.8906,120.0918 Q962.5156,118.9355 963.6094,118.3262 Q964.7031,117.7012 965.9375,117.7012 Q966.6719,117.7012 967.3125,117.873 Q967.9688,118.0293 968.5156,118.3887 Z " fill="#000000"/><text fill="#000000" font-family="sans-serif" font-size="14" lengthAdjust="spacing" textLength="68" x="986.25" y="128.3105">NameError</text><line style="stroke:#181818;stroke-width:0.5;" x1="865.5" x2="1142.5" y1="138.5137" y2="138.5137"/><line style="stroke:#181818;stroke-width:0.5;" x1="865.5" x2="1142.5" y1="146.5137" y2="146.5137"/><ellipse cx="875.5" cy="161.3242" fill="#84BE84" rx="3" ry="3" style="stroke:#038048;stroke-width:1.0;"/><text fill="#000000" font-family="sans-serif" font-size="14" lengthAdjust="spacing" textLength="253" x="884.5" y="165.6211">NameError(errorMessage : String) : void</text></g><!--class NothingSayError--><g id="elem_NothingSayError"><rect codeLine="176" fill="#F1F1F1" height="66.6211" id="NothingSayError" rx="2.5" ry="2.5" style="stroke:#181818;stroke-width:0.5;" width="315" x="334.5" y="106.5137"/><ellipse cx="435.75" cy="122.5137" fill="#ADD1B2" rx="11" ry="11" style="stroke:#181818;stroke-width:1.0;"/><path d="M438.5156,118.3887 Q438.6719,118.1699 438.8594,118.0605 Q439.0469,117.9512 439.2656,117.9512 Q439.6406,117.9512 439.875,118.2168 Q440.1094,118.4668 440.1094,119.0762 L440.1094,120.5293 Q440.1094,121.1387 439.875,121.4043 Q439.6406,121.6699 439.2656,121.6699 Q438.9219,121.6699 438.7188,121.4668 Q438.5156,121.2793 438.4063,120.7637 Q438.3594,120.4043 438.1719,120.2168 Q437.8438,119.8418 437.2344,119.623 Q436.625,119.4043 436,119.4043 Q435.2344,119.4043 434.5938,119.7324 Q433.9688,120.0605 433.4688,120.8105 Q432.9844,121.5605 432.9844,122.5918 L432.9844,123.6855 Q432.9844,124.9199 433.875,125.748 Q434.7656,126.5605 436.3594,126.5605 Q437.2969,126.5605 437.9531,126.3105 Q438.3438,126.1543 438.7656,125.7168 Q439.0313,125.4512 439.1719,125.373 Q439.3281,125.2949 439.5313,125.2949 Q439.8594,125.2949 440.1094,125.5605 Q440.375,125.8105 440.375,126.1543 Q440.375,126.498 440.0313,126.9043 Q439.5313,127.4824 438.7344,127.8105 Q437.6563,128.2637 436.3594,128.2637 Q434.8438,128.2637 433.6406,127.6387 Q432.6563,127.1387 431.9688,126.0762 Q431.2813,124.998 431.2813,123.7168 L431.2813,122.5605 Q431.2813,121.2324 431.8906,120.0918 Q432.5156,118.9355 433.6094,118.3262 Q434.7031,117.7012 435.9375,117.7012 Q436.6719,117.7012 437.3125,117.873 Q437.9688,118.0293 438.5156,118.3887 Z " fill="#000000"/><text fill="#000000" font-family="sans-serif" font-size="14" lengthAdjust="spacing" textLength="104" x="456.25" y="128.3105">NothingSayError</text><line style="stroke:#181818;stroke-width:0.5;" x1="335.5" x2="648.5" y1="138.5137" y2="138.5137"/><line style="stroke:#181818;stroke-width:0.5;" x1="335.5" x2="648.5" y1="146.5137" y2="146.5137"/><ellipse cx="345.5" cy="161.3242" fill="#84BE84" rx="3" ry="3" style="stroke:#038048;stroke-width:1.0;"/><text fill="#000000" font-family="sans-serif" font-size="14" lengthAdjust="spacing" textLength="289" x="354.5" y="165.6211">NothingSayError(errorMessage : String) : void</text></g><!--reverse link RuntimeException to NameError--><g id="link_RuntimeException_NameError"><path codeLine="180" d="M847.85,140.0137 C859.3,140.0137 852.75,140.0137 864.2,140.0137 " fill="none" id="RuntimeException-backto-NameError" style="stroke:#181818;stroke-width:1.0;"/><polygon fill="none" points="829.85,140.0137,847.85,146.0137,847.85,134.0137,829.85,140.0137" style="stroke:#181818;stroke-width:1.0;"/></g><!--reverse link Exception to NothingSayError--><g id="link_Exception_NothingSayError"><path codeLine="181" d="M317.68,140.0137 C329.2,140.0137 322.72,140.0137 334.24,140.0137 " fill="none" id="Exception-backto-NothingSayError" style="stroke:#181818;stroke-width:1.0;"/><polygon fill="none" points="299.68,140.0137,317.68,146.0137,317.68,134.0137,299.68,140.0137" style="stroke:#181818;stroke-width:1.0;"/></g><!--reverse link Talkable to Character--><g id="link_Talkable_Character"><path codeLine="183" d="M1395.3228,201.5236 C1338.1228,236.2436 1278.75,272.2837 1224.67,305.1137 " fill="none" id="Talkable-backto-Character" style="stroke:#181818;stroke-width:1.0;"/><polygon fill="none" points="1410.71,192.1837,1392.2095,196.3945,1398.4361,206.6527,1410.71,192.1837" style="stroke:#181818;stroke-width:1.0;"/></g><!--reverse link Character to River--><g id="link_Character_River"><path codeLine="185" d="M1065.4157,359.8095 C972.6857,371.2595 823.83,394.8337 689,444.0137 C624.34,467.6037 556.82,502.9837 501.2,535.4137 " fill="none" id="Character-backto-River" style="stroke:#181818;stroke-width:1.0;"/><polygon fill="none" points="1083.28,357.6037,1064.6804,353.8547,1066.1509,365.7643,1083.28,357.6037" style="stroke:#181818;stroke-width:1.0;"/></g><!--reverse link Character to Sound--><g id="link_Character_Sound"><path codeLine="186" d="M1099.2874,444.5948 C1081.5874,475.1948 1070.26,494.7737 1052.08,526.2037 " fill="none" id="Character-backto-Sound" style="stroke:#181818;stroke-width:1.0;"/><polygon fill="none" points="1108.3,429.0137,1094.0936,441.5906,1104.4811,447.599,1108.3,429.0137" style="stroke:#181818;stroke-width:1.0;"/></g><!--reverse link Character to Person--><g id="link_Character_Person"><path codeLine="187" d="M1241.4379,385.4128 C1288.7679,403.3828 1336.15,418.5837 1395,429.0137 C1491.11,446.0537 1740.11,417.3237 1834,444.0137 C1871.12,454.5637 1908.53,470.6837 1943.71,488.8837 " fill="none" id="Character-backto-Person" style="stroke:#181818;stroke-width:1.0;"/><polygon fill="none" points="1224.61,379.0237,1239.3082,391.0221,1243.5676,379.8035,1224.61,379.0237" style="stroke:#181818;stroke-width:1.0;"/></g><!--reverse link Person to Tiger--><g id="link_Person_Tiger"><path codeLine="189" d="M2438.742,750.2366 C2475.272,768.9966 2495.52,780.9437 2529,802.0137 C2542.22,810.3337 2555.62,819.9437 2568.41,829.8237 " fill="none" id="Person-backto-Tiger" style="stroke:#181818;stroke-width:1.0;"/><polygon fill="none" points="2422.73,742.0137,2436.001,755.5739,2441.4829,744.8993,2422.73,742.0137" style="stroke:#181818;stroke-width:1.0;"/></g><!--reverse link Person to Vinni--><g id="link_Person_Vinni"><path codeLine="190" d="M2246.0504,756.2395 C2265.0804,779.5595 2273.21,789.5137 2291.09,811.4137 " fill="none" id="Person-backto-Vinni" style="stroke:#181818;stroke-width:1.0;"/><polygon fill="none" points="2234.67,742.2937,2241.4017,760.033,2250.699,752.4461,2234.67,742.2937" style="stroke:#181818;stroke-width:1.0;"/></g><!--reverse link Person to Piglet--><g id="link_Person_Piglet"><path codeLine="191" d="M1970.7487,753.9673 C1947.3687,773.8873 1937.19,782.5737 1914.71,801.7337 " fill="none" id="Person-backto-Piglet" style="stroke:#181818;stroke-width:1.0;"/><polygon fill="none" points="1984.45,742.2937,1966.8575,749.4002,1974.6399,758.5344,1984.45,742.2937" style="stroke:#181818;stroke-width:1.0;"/></g><!--reverse link Person to Rabbit--><g id="link_Person_Rabbit"><path codeLine="192" d="M2108.6688,760.06 C2103.7688,790.17 2101.61,803.4837 2097.3,829.9737 " fill="none" id="Person-backto-Rabbit" style="stroke:#181818;stroke-width:1.0;"/><polygon fill="none" points="2111.56,742.2937,2102.7467,759.0962,2114.5909,761.0237,2111.56,742.2937" style="stroke:#181818;stroke-width:1.0;"/></g><!--reverse link Sound to Decription--><g id="link_Sound_Decription"><path codeLine="194" d="M1001,720.8937 C1001,768.0837 1001,808.5037 1001,848.4137 " fill="none" id="Sound-backto-Decription" style="stroke:#181818;stroke-width:1.0;"/><ellipse cx="1001" cy="712.8937" fill="#FFFFFF" rx="8" ry="8" style="stroke:#181818;stroke-width:1.0;"/><line style="stroke:#181818;stroke-width:1.0;" x1="1001" x2="1001" y1="720.8937" y2="704.8937"/><line style="stroke:#181818;stroke-width:1.0;" x1="993" x2="1009" y1="712.8937" y2="712.8937"/></g><!--reverse link River to Condition--><g id="link_River_Condition"><path codeLine="195" d="M377,711.7237 C377,760.6137 377,805.9037 377,848.4337 " fill="none" id="River-backto-Condition" style="stroke:#181818;stroke-width:1.0;"/><ellipse cx="377" cy="703.7237" fill="#FFFFFF" rx="8" ry="8" style="stroke:#181818;stroke-width:1.0;"/><line style="stroke:#181818;stroke-width:1.0;" x1="377" x2="377" y1="711.7237" y2="695.7237"/><line style="stroke:#181818;stroke-width:1.0;" x1="369" x2="385" y1="703.7237" y2="703.7237"/></g><!--reverse link Tiger to Title--><g id="link_Tiger_Title"><path codeLine="196" d="M2648,987.2337 C2648,1015.8837 2648,1032.4537 2648,1058.8337 " fill="none" id="Tiger-backto-Title" style="stroke:#181818;stroke-width:1.0;"/><ellipse cx="2648" cy="979.2337" fill="#FFFFFF" rx="8" ry="8" style="stroke:#181818;stroke-width:1.0;"/><line style="stroke:#181818;stroke-width:1.0;" x1="2648" x2="2648" y1="987.2337" y2="971.2337"/><line style="stroke:#181818;stroke-width:1.0;" x1="2640" x2="2656" y1="979.2337" y2="979.2337"/></g><!--reverse link Perceptionable to Person--><g id="link_Perceptionable_Person"><path codeLine="200" d="M2444.859,206.4192 C2390.869,276.8492 2302.81,391.7137 2228.43,488.7337 " fill="none" id="Perceptionable-backto-Person" style="stroke:#181818;stroke-width:1.0;"/><polygon fill="none" points="2455.81,192.1337,2440.0972,202.7689,2449.6209,210.0695,2455.81,192.1337" style="stroke:#181818;stroke-width:1.0;"/></g><!--reverse link Lookable to Person--><g id="link_Lookable_Person"><path codeLine="201" d="M2173.0997,191.4793 C2166.8897,255.4093 2154.54,382.5137 2144.21,488.8537 " fill="none" id="Lookable-backto-Person" style="stroke:#181818;stroke-width:1.0;"/><polygon fill="none" points="2174.84,173.5637,2167.1278,190.8993,2179.0716,192.0594,2174.84,173.5637" style="stroke:#181818;stroke-width:1.0;"/></g><!--reverse link Loving to Person--><g id="link_Loving_Person"><path codeLine="202" d="M1960.679,188.4102 C1971.359,203.2402 1972.89,206.6837 1982,224.0137 C2026.71,309.0137 2065.26,410.4137 2092.08,488.5737 " fill="none" id="Loving-backto-Person" style="stroke:#181818;stroke-width:1.0;"/><polygon fill="none" points="1950.16,173.8037,1955.8102,191.9165,1965.5479,184.9038,1950.16,173.8037" style="stroke:#181818;stroke-width:1.0;"/></g><!--SRC=[tLVDRjim33v7Js6W5mz9ym13CI3hEg10MnHBjns67HIRZOKeaYSfwO8iXptYtcYKv3yvTjeYxM4BqCRvH5ByI96YSveiw1mYhPBnWrGy7MUW9EWjIJZLEhe5fQKWMnBXvrJG9KHlewbHJCmTDDHq4vjDxk0S8Cb6qHAqjZPBmL5av7b65KqCA4Ihvr74OGtS2kAtOcPpPN-_GM0jMVgC3PvWXqkvY9CkDrfoJ1iGSUw8uugFm2XY-igj8FHUIWvKX7e9bnekDg3Z49SvY10U33KpSSvfKbDeBCAF5ULUV8OR8MAa5t9O4Vp1CACwEvSfE9G9GtPbpjYSWudwSoPa6ZyXOYkH8dT3HItzkOBGM8TAlj9PEtIjT88n75enEe9omVaJdStO8SuAQBg97p9gzcF-GZvyOKAm0ouOke1RYRbdKiGfw4Int3xtEEJ2_3blXUeUWCVs7yhhHWKWFzrhwdXkTsoEHTFFRGPViI9YHSNY5Nt0arFwOEoFcuv-1CR9nKwWnvTvATJOUMSt8dcx7suH921Mox1Ii2FUI3D5GAuqtv3wQLU8xvSAwamujtgPtx0yksnzCBR_J8iz9iLbCAOIsyx_SDy8EKLBBnSWEjF6qeXyd2fI6Aj1Ar03Uy1jROHMMnxjtpI-ItLuv1Rw2_EZLA0FDDyJ9XA-IY6zDB1i9gIgnhQpPIbVUaNzoCNj25Uo0UdZEHOaFq3LhptHaxH2x6I02XEbwCO-dtcRxoeUjN9dun-FntiDgg4ITAd2dNE9ZQNfJL82ZpfJgSQLpa5FQldG4VlNx9UO4nJ2qR7ebwvwy7ZU0NQzYLwGYT0Fc7HKmz22khS3q1tb2phZW7AlMjilKTVj2jerU5p9DLf04bokeNS42ZMaO-vqS3Rzy_lW6M-gejK4tDae3Jn_QEqQM3k6LNijDf8SbIy6rvJPruBX4hzZ7xvlt_kqng2Kj5TSUUEjX65BkFXPi8YsvUpQ0TdUS57ekoDP0R4pUztAOiE9me2_S35rePaGVjJOZkovVVRhj7QFjF3GF27bIRUhfuqUIEhpx5RSED06_RNO0ekNC-A_FUO6jG1nOsc0-1U40FBpCo5kdsY8IDr_Y1zGB5Yr0k87mg7R4ISfUu67fp9miJphBT2MJ4W5Fty1]--></g></svg>