<?xml version="1.0" encoding="us-ascii" standalone="no"?><svg xmlns="http://www.w3.org/2000/svg" xmlns:xlink="http://www.w3.org/1999/xlink" contentStyleType="text/css" height="900px" preserveAspectRatio="none" style="width:2125px;height:900px;background:#FFFFFF;" version="1.1" viewBox="0 0 2125 900" width="2125px" zoomAndPan="magnify"><defs/><g><!--cluster src--><g id="cluster_src"><path d="M8.5,6.0137 L31.5,6.0137 A3.75,3.75 0 0 1 34,8.5137 L41,30.6348 L2115.5,30.6348 A2.5,2.5 0 0 1 2118,33.1348 L2118,890.5137 A2.5,2.5 0 0 1 2115.5,893.0137 L8.5,893.0137 A2.5,2.5 0 0 1 6,890.5137 L6,8.5137 A2.5,2.5 0 0 1 8.5,6.0137 " fill="none" style="stroke:#000000;stroke-width:1.5;"/><line style="stroke:#000000;stroke-width:1.5;" x1="6" x2="41" y1="30.6348" y2="30.6348"/><text fill="#000000" font-family="sans-serif" font-size="14" font-weight="bold" lengthAdjust="spacing" textLength="22" x="10" y="23.1211">src</text></g><!--cluster world--><g id="cluster_world"><path d="M32.5,250.0137 L72.5,250.0137 A3.75,3.75 0 0 1 75,252.5137 L82,274.6348 L2091.5,274.6348 A2.5,2.5 0 0 1 2094,277.1348 L2094,866.5137 A2.5,2.5 0 0 1 2091.5,869.0137 L32.5,869.0137 A2.5,2.5 0 0 1 30,866.5137 L30,252.5137 A2.5,2.5 0 0 1 32.5,250.0137 " fill="none" style="stroke:#000000;stroke-width:1.5;"/><line style="stroke:#000000;stroke-width:1.5;" x1="30" x2="82" y1="274.6348" y2="274.6348"/><text fill="#000000" font-family="sans-serif" font-size="14" font-weight="bold" lengthAdjust="spacing" textLength="39" x="34" y="267.1211">world</text></g><!--cluster actions--><g id="cluster_actions"><path d="M808.5,51.0137 L860.5,51.0137 A3.75,3.75 0 0 1 863,53.5137 L870,75.6348 L1903.5,75.6348 A2.5,2.5 0 0 1 1906,78.1348 L1906,223.5137 A2.5,2.5 0 0 1 1903.5,226.0137 L808.5,226.0137 A2.5,2.5 0 0 1 806,223.5137 L806,53.5137 A2.5,2.5 0 0 1 808.5,51.0137 " fill="none" style="stroke:#000000;stroke-width:1.5;"/><line style="stroke:#000000;stroke-width:1.5;" x1="806" x2="870" y1="75.6348" y2="75.6348"/><text fill="#000000" font-family="sans-serif" font-size="14" font-weight="bold" lengthAdjust="spacing" textLength="51" x="810" y="68.1211">actions</text></g><!--class Main--><g id="elem_Main"><rect codeLine="101" fill="#F1F1F1" height="66.6211" id="Main" rx="2.5" ry="2.5" style="stroke:#181818;stroke-width:0.5;" width="149" x="406.5" y="115.5137"/><ellipse cx="461.75" cy="131.5137" fill="#ADD1B2" rx="11" ry="11" style="stroke:#181818;stroke-width:1.0;"/><path d="M464.5156,127.3887 Q464.6719,127.1699 464.8594,127.0605 Q465.0469,126.9512 465.2656,126.9512 Q465.6406,126.9512 465.875,127.2168 Q466.1094,127.4668 466.1094,128.0762 L466.1094,129.5293 Q466.1094,130.1387 465.875,130.4043 Q465.6406,130.6699 465.2656,130.6699 Q464.9219,130.6699 464.7188,130.4668 Q464.5156,130.2793 464.4063,129.7637 Q464.3594,129.4043 464.1719,129.2168 Q463.8438,128.8418 463.2344,128.623 Q462.625,128.4043 462,128.4043 Q461.2344,128.4043 460.5938,128.7324 Q459.9688,129.0605 459.4688,129.8105 Q458.9844,130.5605 458.9844,131.5918 L458.9844,132.6855 Q458.9844,133.9199 459.875,134.748 Q460.7656,135.5605 462.3594,135.5605 Q463.2969,135.5605 463.9531,135.3105 Q464.3438,135.1543 464.7656,134.7168 Q465.0313,134.4512 465.1719,134.373 Q465.3281,134.2949 465.5313,134.2949 Q465.8594,134.2949 466.1094,134.5605 Q466.375,134.8105 466.375,135.1543 Q466.375,135.498 466.0313,135.9043 Q465.5313,136.4824 464.7344,136.8105 Q463.6563,137.2637 462.3594,137.2637 Q460.8438,137.2637 459.6406,136.6387 Q458.6563,136.1387 457.9688,135.0762 Q457.2813,133.998 457.2813,132.7168 L457.2813,131.5605 Q457.2813,130.2324 457.8906,129.0918 Q458.5156,127.9355 459.6094,127.3262 Q460.7031,126.7012 461.9375,126.7012 Q462.6719,126.7012 463.3125,126.873 Q463.9688,127.0293 464.5156,127.3887 Z " fill="#000000"/><text fill="#000000" font-family="sans-serif" font-size="14" lengthAdjust="spacing" textLength="30" x="482.25" y="137.3105">Main</text><line style="stroke:#181818;stroke-width:0.5;" x1="407.5" x2="554.5" y1="147.5137" y2="147.5137"/><line style="stroke:#181818;stroke-width:0.5;" x1="407.5" x2="554.5" y1="155.5137" y2="155.5137"/><ellipse cx="417.5" cy="170.3242" fill="#84BE84" rx="3" ry="3" style="stroke:#038048;stroke-width:1.0;"/><text fill="#000000" font-family="sans-serif" font-size="14" lengthAdjust="spacing" textLength="123" x="426.5" y="174.6211">main(String[]) : void</text></g><!--class Forest--><g id="elem_Forest"><rect codeLine="3" fill="#F1F1F1" height="196.9688" id="Forest" rx="2.5" ry="2.5" style="stroke:#181818;stroke-width:0.5;" width="280" x="1295" y="287.0137"/><ellipse cx="1410.25" cy="303.0137" fill="#ADD1B2" rx="11" ry="11" style="stroke:#181818;stroke-width:1.0;"/><path d="M1413.0156,298.8887 Q1413.1719,298.6699 1413.3594,298.5605 Q1413.5469,298.4512 1413.7656,298.4512 Q1414.1406,298.4512 1414.375,298.7168 Q1414.6094,298.9668 1414.6094,299.5762 L1414.6094,301.0293 Q1414.6094,301.6387 1414.375,301.9043 Q1414.1406,302.1699 1413.7656,302.1699 Q1413.4219,302.1699 1413.2188,301.9668 Q1413.0156,301.7793 1412.9063,301.2637 Q1412.8594,300.9043 1412.6719,300.7168 Q1412.3438,300.3418 1411.7344,300.123 Q1411.125,299.9043 1410.5,299.9043 Q1409.7344,299.9043 1409.0938,300.2324 Q1408.4688,300.5605 1407.9688,301.3105 Q1407.4844,302.0605 1407.4844,303.0918 L1407.4844,304.1855 Q1407.4844,305.4199 1408.375,306.248 Q1409.2656,307.0605 1410.8594,307.0605 Q1411.7969,307.0605 1412.4531,306.8105 Q1412.8438,306.6543 1413.2656,306.2168 Q1413.5313,305.9512 1413.6719,305.873 Q1413.8281,305.7949 1414.0313,305.7949 Q1414.3594,305.7949 1414.6094,306.0605 Q1414.875,306.3105 1414.875,306.6543 Q1414.875,306.998 1414.5313,307.4043 Q1414.0313,307.9824 1413.2344,308.3105 Q1412.1563,308.7637 1410.8594,308.7637 Q1409.3438,308.7637 1408.1406,308.1387 Q1407.1563,307.6387 1406.4688,306.5762 Q1405.7813,305.498 1405.7813,304.2168 L1405.7813,303.0605 Q1405.7813,301.7324 1406.3906,300.5918 Q1407.0156,299.4355 1408.1094,298.8262 Q1409.2031,298.2012 1410.4375,298.2012 Q1411.1719,298.2012 1411.8125,298.373 Q1412.4688,298.5293 1413.0156,298.8887 Z " fill="#000000"/><text fill="#000000" font-family="sans-serif" font-size="14" lengthAdjust="spacing" textLength="41" x="1430.75" y="308.8105">Forest</text><line style="stroke:#181818;stroke-width:0.5;" x1="1296" x2="1574" y1="319.0137" y2="319.0137"/><rect fill="none" height="6" style="stroke:#C82930;stroke-width:1.0;" width="6" x="1303" y="330.8242"/><text fill="#000000" font-family="sans-serif" font-size="14" lengthAdjust="spacing" textLength="84" x="1315" y="338.1211">name : String</text><polygon fill="none" points="1306,347.4453,1310,351.4453,1306,355.4453,1302,351.4453" style="stroke:#B38D22;stroke-width:1.0;"/><text fill="#000000" font-family="sans-serif" font-size="14" lengthAdjust="spacing" textLength="154" x="1315" y="356.7422">includedItem : Character</text><line style="stroke:#181818;stroke-width:0.5;" x1="1296" x2="1574" y1="364.2559" y2="364.2559"/><ellipse cx="1306" cy="379.0664" fill="#84BE84" rx="3" ry="3" style="stroke:#038048;stroke-width:1.0;"/><text fill="#000000" font-family="sans-serif" font-size="14" lengthAdjust="spacing" textLength="115" x="1315" y="383.3633">getName() : String</text><ellipse cx="1306" cy="397.6875" fill="#84BE84" rx="3" ry="3" style="stroke:#038048;stroke-width:1.0;"/><text fill="#000000" font-family="sans-serif" font-size="14" lengthAdjust="spacing" textLength="254" x="1315" y="401.9844">setIncludes(character : Character) : void</text><ellipse cx="1306" cy="416.3086" fill="#84BE84" rx="3" ry="3" style="stroke:#038048;stroke-width:1.0;"/><text fill="#000000" font-family="sans-serif" font-size="14" lengthAdjust="spacing" textLength="131" x="1315" y="420.6055">getIncludes() : String</text><ellipse cx="1306" cy="434.9297" fill="#84BE84" rx="3" ry="3" style="stroke:#038048;stroke-width:1.0;"/><text fill="#000000" font-family="sans-serif" font-size="14" lengthAdjust="spacing" textLength="91" x="1315" y="439.2266">equals() : bool</text><ellipse cx="1306" cy="453.5508" fill="#84BE84" rx="3" ry="3" style="stroke:#038048;stroke-width:1.0;"/><text fill="#000000" font-family="sans-serif" font-size="14" lengthAdjust="spacing" textLength="108" x="1315" y="457.8477">toString() : String</text><ellipse cx="1306" cy="472.1719" fill="#84BE84" rx="3" ry="3" style="stroke:#038048;stroke-width:1.0;"/><text fill="#000000" font-family="sans-serif" font-size="14" lengthAdjust="spacing" textLength="102" x="1315" y="476.4688">hashCode() : int</text></g><!--class Character--><g id="elem_Character"><rect codeLine="13" fill="#F1F1F1" height="178.3477" id="Character" rx="2.5" ry="2.5" style="stroke:#181818;stroke-width:0.5;" width="589" x="670.5" y="296.5137"/><ellipse cx="929.25" cy="312.5137" fill="#A9DCDF" rx="11" ry="11" style="stroke:#181818;stroke-width:1.0;"/><path d="M931.4375,314.2793 L927.2969,314.2793 L926.875,315.3105 L927.2969,315.3105 Q927.9063,315.3105 928.1719,315.5449 Q928.4375,315.7793 928.4375,316.1699 Q928.4375,316.5449 928.1719,316.7793 Q927.9063,317.0137 927.2969,317.0137 L925,317.0137 Q924.3906,317.0137 924.1406,316.7793 Q923.875,316.5449 923.875,316.1543 Q923.875,315.7793 924.1563,315.5449 Q924.4219,315.2949 925.0469,315.3105 L927.7188,308.6543 L926.6094,308.6543 Q926,308.6543 925.7344,308.4199 Q925.4688,308.1855 925.4688,307.7949 Q925.4688,307.4199 925.7344,307.1855 Q926,306.9512 926.6094,306.9512 L930.2813,306.9512 L933.6719,315.3105 Q934.2656,315.3105 934.4531,315.4512 Q934.8438,315.7168 934.8438,316.1699 Q934.8438,316.5449 934.5781,316.7793 Q934.3281,317.0137 933.7188,317.0137 L931.4219,317.0137 Q930.8125,317.0137 930.5469,316.7793 Q930.2813,316.5449 930.2813,316.1543 Q930.2813,315.7793 930.5469,315.5449 Q930.8125,315.3105 931.4219,315.3105 L931.8438,315.3105 L931.4375,314.2793 Z M930.7188,312.5762 L929.3594,309.2012 L927.9844,312.5762 L930.7188,312.5762 Z " fill="#000000"/><text fill="#000000" font-family="sans-serif" font-size="14" font-style="italic" lengthAdjust="spacing" textLength="63" x="949.75" y="318.3105">Character</text><line style="stroke:#181818;stroke-width:0.5;" x1="671.5" x2="1258.5" y1="328.5137" y2="328.5137"/><rect fill="none" height="6" style="stroke:#C82930;stroke-width:1.0;" width="6" x="678.5" y="340.3242"/><text fill="#000000" font-family="sans-serif" font-size="14" lengthAdjust="spacing" textLength="84" x="690.5" y="347.6211">name : String</text><line style="stroke:#181818;stroke-width:0.5;" x1="671.5" x2="1258.5" y1="355.1348" y2="355.1348"/><ellipse cx="681.5" cy="369.9453" fill="#84BE84" rx="3" ry="3" style="stroke:#038048;stroke-width:1.0;"/><text fill="#000000" font-family="sans-serif" font-size="14" lengthAdjust="spacing" textLength="115" x="690.5" y="374.2422">getName() : String</text><ellipse cx="681.5" cy="388.5664" fill="#84BE84" rx="3" ry="3" style="stroke:#038048;stroke-width:1.0;"/><text fill="#000000" font-family="sans-serif" font-size="14" lengthAdjust="spacing" textLength="563" x="690.5" y="392.8633">say(type : Speech, message : String, toCharacter : Character, level : SeverityLevel) : void</text><ellipse cx="681.5" cy="407.1875" fill="#84BE84" rx="3" ry="3" style="stroke:#038048;stroke-width:1.0;"/><text fill="#000000" font-family="sans-serif" font-size="14" lengthAdjust="spacing" textLength="70" x="690.5" y="411.4844">say() : void</text><ellipse cx="681.5" cy="425.8086" fill="#84BE84" rx="3" ry="3" style="stroke:#038048;stroke-width:1.0;"/><text fill="#000000" font-family="sans-serif" font-size="14" lengthAdjust="spacing" textLength="91" x="690.5" y="430.1055">equals() : bool</text><ellipse cx="681.5" cy="444.4297" fill="#84BE84" rx="3" ry="3" style="stroke:#038048;stroke-width:1.0;"/><text fill="#000000" font-family="sans-serif" font-size="14" lengthAdjust="spacing" textLength="108" x="690.5" y="448.7266">toString() : String</text><ellipse cx="681.5" cy="463.0508" fill="#84BE84" rx="3" ry="3" style="stroke:#038048;stroke-width:1.0;"/><text fill="#000000" font-family="sans-serif" font-size="14" lengthAdjust="spacing" textLength="102" x="690.5" y="467.3477">hashCode() : int</text></g><!--class River--><g id="elem_River"><rect codeLine="23" fill="#F1F1F1" height="215.5898" id="River" rx="2.5" ry="2.5" style="stroke:#181818;stroke-width:0.5;" width="589" x="670.5" y="590.5137"/><ellipse cx="944.25" cy="606.5137" fill="#ADD1B2" rx="11" ry="11" style="stroke:#181818;stroke-width:1.0;"/><path d="M947.0156,602.3887 Q947.1719,602.1699 947.3594,602.0605 Q947.5469,601.9512 947.7656,601.9512 Q948.1406,601.9512 948.375,602.2168 Q948.6094,602.4668 948.6094,603.0762 L948.6094,604.5293 Q948.6094,605.1387 948.375,605.4043 Q948.1406,605.6699 947.7656,605.6699 Q947.4219,605.6699 947.2188,605.4668 Q947.0156,605.2793 946.9063,604.7637 Q946.8594,604.4043 946.6719,604.2168 Q946.3438,603.8418 945.7344,603.623 Q945.125,603.4043 944.5,603.4043 Q943.7344,603.4043 943.0938,603.7324 Q942.4688,604.0605 941.9688,604.8105 Q941.4844,605.5605 941.4844,606.5918 L941.4844,607.6855 Q941.4844,608.9199 942.375,609.748 Q943.2656,610.5605 944.8594,610.5605 Q945.7969,610.5605 946.4531,610.3105 Q946.8438,610.1543 947.2656,609.7168 Q947.5313,609.4512 947.6719,609.373 Q947.8281,609.2949 948.0313,609.2949 Q948.3594,609.2949 948.6094,609.5605 Q948.875,609.8105 948.875,610.1543 Q948.875,610.498 948.5313,610.9043 Q948.0313,611.4824 947.2344,611.8105 Q946.1563,612.2637 944.8594,612.2637 Q943.3438,612.2637 942.1406,611.6387 Q941.1563,611.1387 940.4688,610.0762 Q939.7813,608.998 939.7813,607.7168 L939.7813,606.5605 Q939.7813,605.2324 940.3906,604.0918 Q941.0156,602.9355 942.1094,602.3262 Q943.2031,601.7012 944.4375,601.7012 Q945.1719,601.7012 945.8125,601.873 Q946.4688,602.0293 947.0156,602.3887 Z " fill="#000000"/><text fill="#000000" font-family="sans-serif" font-size="14" lengthAdjust="spacing" textLength="33" x="964.75" y="612.3105">River</text><line style="stroke:#181818;stroke-width:0.5;" x1="671.5" x2="1258.5" y1="622.5137" y2="622.5137"/><rect fill="none" height="6" style="stroke:#C82930;stroke-width:1.0;" width="6" x="678.5" y="634.3242"/><text fill="#000000" font-family="sans-serif" font-size="14" lengthAdjust="spacing" textLength="84" x="690.5" y="641.6211">name : String</text><polygon fill="none" points="681.5,650.9453,685.5,654.9453,681.5,658.9453,677.5,654.9453" style="stroke:#B38D22;stroke-width:1.0;"/><text fill="#000000" font-family="sans-serif" font-size="14" lengthAdjust="spacing" textLength="200" x="690.5" y="660.2422">conditionList : ArrayList&lt;String&gt;</text><line style="stroke:#181818;stroke-width:0.5;" x1="671.5" x2="1258.5" y1="667.7559" y2="667.7559"/><ellipse cx="681.5" cy="682.5664" fill="#84BE84" rx="3" ry="3" style="stroke:#038048;stroke-width:1.0;"/><text fill="#000000" font-family="sans-serif" font-size="14" lengthAdjust="spacing" textLength="563" x="690.5" y="686.8633">say(type : Speech, message : String, toCharacter : Character, level : SeverityLevel) : void</text><ellipse cx="681.5" cy="701.1875" fill="#84BE84" rx="3" ry="3" style="stroke:#038048;stroke-width:1.0;"/><text fill="#000000" font-family="sans-serif" font-size="14" lengthAdjust="spacing" textLength="70" x="690.5" y="705.4844">say() : void</text><ellipse cx="681.5" cy="719.8086" fill="#84BE84" rx="3" ry="3" style="stroke:#038048;stroke-width:1.0;"/><text fill="#000000" font-family="sans-serif" font-size="14" lengthAdjust="spacing" textLength="257" x="690.5" y="724.1055">setCondition(description : String...) : void</text><ellipse cx="681.5" cy="738.4297" fill="#84BE84" rx="3" ry="3" style="stroke:#038048;stroke-width:1.0;"/><text fill="#000000" font-family="sans-serif" font-size="14" lengthAdjust="spacing" textLength="139" x="690.5" y="742.7266">getCondition() : String</text><ellipse cx="681.5" cy="757.0508" fill="#84BE84" rx="3" ry="3" style="stroke:#038048;stroke-width:1.0;"/><text fill="#000000" font-family="sans-serif" font-size="14" lengthAdjust="spacing" textLength="91" x="690.5" y="761.3477">equals() : bool</text><ellipse cx="681.5" cy="775.6719" fill="#84BE84" rx="3" ry="3" style="stroke:#038048;stroke-width:1.0;"/><text fill="#000000" font-family="sans-serif" font-size="14" lengthAdjust="spacing" textLength="108" x="690.5" y="779.9688">toString() : String</text><ellipse cx="681.5" cy="794.293" fill="#84BE84" rx="3" ry="3" style="stroke:#038048;stroke-width:1.0;"/><text fill="#000000" font-family="sans-serif" font-size="14" lengthAdjust="spacing" textLength="102" x="690.5" y="798.5898">hashCode() : int</text></g><!--class Person--><g id="elem_Person"><rect codeLine="35" fill="#F1F1F1" height="308.6953" id="Person" rx="2.5" ry="2.5" style="stroke:#181818;stroke-width:0.5;" width="589" x="1488.5" y="544.0137"/><ellipse cx="1756.25" cy="560.0137" fill="#ADD1B2" rx="11" ry="11" style="stroke:#181818;stroke-width:1.0;"/><path d="M1759.0156,555.8887 Q1759.1719,555.6699 1759.3594,555.5605 Q1759.5469,555.4512 1759.7656,555.4512 Q1760.1406,555.4512 1760.375,555.7168 Q1760.6094,555.9668 1760.6094,556.5762 L1760.6094,558.0293 Q1760.6094,558.6387 1760.375,558.9043 Q1760.1406,559.1699 1759.7656,559.1699 Q1759.4219,559.1699 1759.2188,558.9668 Q1759.0156,558.7793 1758.9063,558.2637 Q1758.8594,557.9043 1758.6719,557.7168 Q1758.3438,557.3418 1757.7344,557.123 Q1757.125,556.9043 1756.5,556.9043 Q1755.7344,556.9043 1755.0938,557.2324 Q1754.4688,557.5605 1753.9688,558.3105 Q1753.4844,559.0605 1753.4844,560.0918 L1753.4844,561.1855 Q1753.4844,562.4199 1754.375,563.248 Q1755.2656,564.0605 1756.8594,564.0605 Q1757.7969,564.0605 1758.4531,563.8105 Q1758.8438,563.6543 1759.2656,563.2168 Q1759.5313,562.9512 1759.6719,562.873 Q1759.8281,562.7949 1760.0313,562.7949 Q1760.3594,562.7949 1760.6094,563.0605 Q1760.875,563.3105 1760.875,563.6543 Q1760.875,563.998 1760.5313,564.4043 Q1760.0313,564.9824 1759.2344,565.3105 Q1758.1563,565.7637 1756.8594,565.7637 Q1755.3438,565.7637 1754.1406,565.1387 Q1753.1563,564.6387 1752.4688,563.5762 Q1751.7813,562.498 1751.7813,561.2168 L1751.7813,560.0605 Q1751.7813,558.7324 1752.3906,557.5918 Q1753.0156,556.4355 1754.1094,555.8262 Q1755.2031,555.2012 1756.4375,555.2012 Q1757.1719,555.2012 1757.8125,555.373 Q1758.4688,555.5293 1759.0156,555.8887 Z " fill="#000000"/><text fill="#000000" font-family="sans-serif" font-size="14" lengthAdjust="spacing" textLength="45" x="1776.75" y="565.8105">Person</text><line style="stroke:#181818;stroke-width:0.5;" x1="1489.5" x2="2076.5" y1="576.0137" y2="576.0137"/><rect fill="none" height="6" style="stroke:#C82930;stroke-width:1.0;" width="6" x="1496.5" y="587.8242"/><text fill="#000000" font-family="sans-serif" font-size="14" lengthAdjust="spacing" textLength="84" x="1508.5" y="595.1211">name : String</text><line style="stroke:#181818;stroke-width:0.5;" x1="1489.5" x2="2076.5" y1="602.6348" y2="602.6348"/><ellipse cx="1499.5" cy="617.4453" fill="#84BE84" rx="3" ry="3" style="stroke:#038048;stroke-width:1.0;"/><text fill="#000000" font-family="sans-serif" font-size="14" lengthAdjust="spacing" textLength="563" x="1508.5" y="621.7422">say(type : Speech, message : String, toCharacter : Character, level : SeverityLevel) : void</text><ellipse cx="1499.5" cy="636.0664" fill="#84BE84" rx="3" ry="3" style="stroke:#038048;stroke-width:1.0;"/><text fill="#000000" font-family="sans-serif" font-size="14" lengthAdjust="spacing" textLength="70" x="1508.5" y="640.3633">say() : void</text><ellipse cx="1499.5" cy="654.6875" fill="#84BE84" rx="3" ry="3" style="stroke:#038048;stroke-width:1.0;"/><text fill="#000000" font-family="sans-serif" font-size="14" lengthAdjust="spacing" textLength="209" x="1508.5" y="658.9844">look(character : Character) : void</text><ellipse cx="1499.5" cy="673.3086" fill="#84BE84" rx="3" ry="3" style="stroke:#038048;stroke-width:1.0;"/><text fill="#000000" font-family="sans-serif" font-size="14" lengthAdjust="spacing" textLength="302" x="1508.5" y="677.6055">listen(person : Person, isListen : Boolean) : void</text><ellipse cx="1499.5" cy="691.9297" fill="#84BE84" rx="3" ry="3" style="stroke:#038048;stroke-width:1.0;"/><text fill="#000000" font-family="sans-serif" font-size="14" lengthAdjust="spacing" textLength="112" x="1508.5" y="696.2266">closeEyes() : void</text><ellipse cx="1499.5" cy="710.5508" fill="#84BE84" rx="3" ry="3" style="stroke:#038048;stroke-width:1.0;"/><text fill="#000000" font-family="sans-serif" font-size="14" lengthAdjust="spacing" textLength="111" x="1508.5" y="714.8477">openEyes() : void</text><ellipse cx="1499.5" cy="729.1719" fill="#84BE84" rx="3" ry="3" style="stroke:#038048;stroke-width:1.0;"/><text fill="#000000" font-family="sans-serif" font-size="14" lengthAdjust="spacing" textLength="145" x="1508.5" y="733.4688">sit(place : String) : void</text><ellipse cx="1499.5" cy="747.793" fill="#84BE84" rx="3" ry="3" style="stroke:#038048;stroke-width:1.0;"/><text fill="#000000" font-family="sans-serif" font-size="14" lengthAdjust="spacing" textLength="243" x="1508.5" y="752.0898">takePosition(description : String) : void</text><ellipse cx="1499.5" cy="766.4141" fill="#84BE84" rx="3" ry="3" style="stroke:#038048;stroke-width:1.0;"/><text fill="#000000" font-family="sans-serif" font-size="14" lengthAdjust="spacing" textLength="198" x="1508.5" y="770.7109">nod(level : SeverityLevel) : void</text><ellipse cx="1499.5" cy="785.0352" fill="#84BE84" rx="3" ry="3" style="stroke:#038048;stroke-width:1.0;"/><text fill="#000000" font-family="sans-serif" font-size="14" lengthAdjust="spacing" textLength="287" x="1508.5" y="789.332">understand(level : UnderstandingLevel) : void</text><ellipse cx="1499.5" cy="803.6563" fill="#84BE84" rx="3" ry="3" style="stroke:#038048;stroke-width:1.0;"/><text fill="#000000" font-family="sans-serif" font-size="14" lengthAdjust="spacing" textLength="91" x="1508.5" y="807.9531">equals() : bool</text><ellipse cx="1499.5" cy="822.2773" fill="#84BE84" rx="3" ry="3" style="stroke:#038048;stroke-width:1.0;"/><text fill="#000000" font-family="sans-serif" font-size="14" lengthAdjust="spacing" textLength="108" x="1508.5" y="826.5742">toString() : String</text><ellipse cx="1499.5" cy="840.8984" fill="#84BE84" rx="3" ry="3" style="stroke:#038048;stroke-width:1.0;"/><text fill="#000000" font-family="sans-serif" font-size="14" lengthAdjust="spacing" textLength="102" x="1508.5" y="845.1953">hashCode() : int</text></g><!--class Sound--><g id="elem_Sound"><rect codeLine="53" fill="#F1F1F1" height="215.5898" id="Sound" rx="2.5" ry="2.5" style="stroke:#181818;stroke-width:0.5;" width="589" x="46.5" y="590.5137"/><ellipse cx="316.25" cy="606.5137" fill="#ADD1B2" rx="11" ry="11" style="stroke:#181818;stroke-width:1.0;"/><path d="M319.0156,602.3887 Q319.1719,602.1699 319.3594,602.0605 Q319.5469,601.9512 319.7656,601.9512 Q320.1406,601.9512 320.375,602.2168 Q320.6094,602.4668 320.6094,603.0762 L320.6094,604.5293 Q320.6094,605.1387 320.375,605.4043 Q320.1406,605.6699 319.7656,605.6699 Q319.4219,605.6699 319.2188,605.4668 Q319.0156,605.2793 318.9063,604.7637 Q318.8594,604.4043 318.6719,604.2168 Q318.3438,603.8418 317.7344,603.623 Q317.125,603.4043 316.5,603.4043 Q315.7344,603.4043 315.0938,603.7324 Q314.4688,604.0605 313.9688,604.8105 Q313.4844,605.5605 313.4844,606.5918 L313.4844,607.6855 Q313.4844,608.9199 314.375,609.748 Q315.2656,610.5605 316.8594,610.5605 Q317.7969,610.5605 318.4531,610.3105 Q318.8438,610.1543 319.2656,609.7168 Q319.5313,609.4512 319.6719,609.373 Q319.8281,609.2949 320.0313,609.2949 Q320.3594,609.2949 320.6094,609.5605 Q320.875,609.8105 320.875,610.1543 Q320.875,610.498 320.5313,610.9043 Q320.0313,611.4824 319.2344,611.8105 Q318.1563,612.2637 316.8594,612.2637 Q315.3438,612.2637 314.1406,611.6387 Q313.1563,611.1387 312.4688,610.0762 Q311.7813,608.998 311.7813,607.7168 L311.7813,606.5605 Q311.7813,605.2324 312.3906,604.0918 Q313.0156,602.9355 314.1094,602.3262 Q315.2031,601.7012 316.4375,601.7012 Q317.1719,601.7012 317.8125,601.873 Q318.4688,602.0293 319.0156,602.3887 Z " fill="#000000"/><text fill="#000000" font-family="sans-serif" font-size="14" lengthAdjust="spacing" textLength="41" x="336.75" y="612.3105">Sound</text><line style="stroke:#181818;stroke-width:0.5;" x1="47.5" x2="634.5" y1="622.5137" y2="622.5137"/><rect fill="none" height="6" style="stroke:#C82930;stroke-width:1.0;" width="6" x="54.5" y="634.3242"/><text fill="#000000" font-family="sans-serif" font-size="14" lengthAdjust="spacing" textLength="84" x="66.5" y="641.6211">name : String</text><polygon fill="none" points="57.5,650.9453,61.5,654.9453,57.5,658.9453,53.5,654.9453" style="stroke:#B38D22;stroke-width:1.0;"/><text fill="#000000" font-family="sans-serif" font-size="14" lengthAdjust="spacing" textLength="190" x="66.5" y="660.2422">description : ArrayList&lt;String&gt;</text><line style="stroke:#181818;stroke-width:0.5;" x1="47.5" x2="634.5" y1="667.7559" y2="667.7559"/><ellipse cx="57.5" cy="682.5664" fill="#84BE84" rx="3" ry="3" style="stroke:#038048;stroke-width:1.0;"/><text fill="#000000" font-family="sans-serif" font-size="14" lengthAdjust="spacing" textLength="268" x="66.5" y="686.8633">setDescription(description : String...) : void</text><ellipse cx="57.5" cy="701.1875" fill="#84BE84" rx="3" ry="3" style="stroke:#038048;stroke-width:1.0;"/><text fill="#000000" font-family="sans-serif" font-size="14" lengthAdjust="spacing" textLength="150" x="66.5" y="705.4844">getDescription() : String</text><ellipse cx="57.5" cy="719.8086" fill="#84BE84" rx="3" ry="3" style="stroke:#038048;stroke-width:1.0;"/><text fill="#000000" font-family="sans-serif" font-size="14" lengthAdjust="spacing" textLength="563" x="66.5" y="724.1055">say(type : Speech, message : String, toCharacter : Character, level : SeverityLevel) : void</text><ellipse cx="57.5" cy="738.4297" fill="#84BE84" rx="3" ry="3" style="stroke:#038048;stroke-width:1.0;"/><text fill="#000000" font-family="sans-serif" font-size="14" lengthAdjust="spacing" textLength="70" x="66.5" y="742.7266">say() : void</text><ellipse cx="57.5" cy="757.0508" fill="#84BE84" rx="3" ry="3" style="stroke:#038048;stroke-width:1.0;"/><text fill="#000000" font-family="sans-serif" font-size="14" lengthAdjust="spacing" textLength="91" x="66.5" y="761.3477">equals() : bool</text><ellipse cx="57.5" cy="775.6719" fill="#84BE84" rx="3" ry="3" style="stroke:#038048;stroke-width:1.0;"/><text fill="#000000" font-family="sans-serif" font-size="14" lengthAdjust="spacing" textLength="108" x="66.5" y="779.9688">toString() : String</text><ellipse cx="57.5" cy="794.293" fill="#84BE84" rx="3" ry="3" style="stroke:#038048;stroke-width:1.0;"/><text fill="#000000" font-family="sans-serif" font-size="14" lengthAdjust="spacing" textLength="102" x="66.5" y="798.5898">hashCode() : int</text></g><!--class SeverityLevel--><g id="elem_SeverityLevel"><rect codeLine="66" fill="#F1F1F1" height="85.2422" id="SeverityLevel" rx="2.5" ry="2.5" style="stroke:#181818;stroke-width:0.5;" width="117" x="1610.5" y="343.0137"/><ellipse cx="1625.5" cy="359.0137" fill="#EB937F" rx="11" ry="11" style="stroke:#181818;stroke-width:1.0;"/><path d="M1624.3594,359.8105 L1624.3594,362.3105 L1628.6875,362.3105 L1628.6875,361.3887 Q1628.6875,360.7793 1628.9219,360.5137 Q1629.1719,360.248 1629.5469,360.248 Q1629.9219,360.248 1630.1563,360.5137 Q1630.3906,360.7793 1630.3906,361.3887 L1630.3906,364.0137 L1622.3906,364.0137 Q1621.7656,364.0137 1621.5,363.7793 Q1621.25,363.5449 1621.25,363.1543 Q1621.25,362.7793 1621.5156,362.5449 Q1621.7813,362.3105 1622.3906,362.3105 L1622.6563,362.3105 L1622.6563,355.6543 L1622.3906,355.6543 Q1621.7656,355.6543 1621.5,355.4199 Q1621.25,355.1855 1621.25,354.7949 Q1621.25,354.4199 1621.5,354.1855 Q1621.7656,353.9512 1622.3906,353.9512 L1630.0156,353.9512 L1630.0156,356.5449 Q1630.0156,357.1543 1629.7813,357.4199 Q1629.5625,357.6699 1629.1719,357.6699 Q1628.7969,357.6699 1628.5625,357.4199 Q1628.3281,357.1543 1628.3281,356.5449 L1628.3281,355.6543 L1624.3594,355.6543 L1624.3594,358.1074 L1625.8438,358.1074 Q1625.8438,357.4512 1625.9688,357.2637 Q1626.2344,356.8574 1626.7031,356.8574 Q1627.0781,356.8574 1627.3125,357.123 Q1627.5469,357.373 1627.5469,357.9824 L1627.5469,359.9512 Q1627.5469,360.498 1627.4219,360.6855 Q1627.1563,361.0762 1626.7031,361.0762 Q1626.2344,361.0762 1625.9688,360.6699 Q1625.8438,360.4824 1625.8438,359.8105 L1624.3594,359.8105 Z " fill="#000000"/><text fill="#000000" font-family="sans-serif" font-size="14" lengthAdjust="spacing" textLength="85" x="1639.5" y="364.8105">SeverityLevel</text><line style="stroke:#181818;stroke-width:0.5;" x1="1611.5" x2="1726.5" y1="375.0137" y2="375.0137"/><text fill="#000000" font-family="sans-serif" font-size="14" lengthAdjust="spacing" textLength="79" x="1616.5" y="394.1211">NotSeriously</text><text fill="#000000" font-family="sans-serif" font-size="14" lengthAdjust="spacing" textLength="58" x="1616.5" y="412.7422">Seriously</text><line style="stroke:#181818;stroke-width:0.5;" x1="1611.5" x2="1726.5" y1="420.2559" y2="420.2559"/></g><!--class UnderstandingLevel--><g id="elem_UnderstandingLevel"><rect codeLine="72" fill="#F1F1F1" height="85.2422" id="UnderstandingLevel" rx="2.5" ry="2.5" style="stroke:#181818;stroke-width:0.5;" width="158" x="1295" y="656.0137"/><ellipse cx="1310" cy="672.0137" fill="#EB937F" rx="11" ry="11" style="stroke:#181818;stroke-width:1.0;"/><path d="M1308.8594,672.8105 L1308.8594,675.3105 L1313.1875,675.3105 L1313.1875,674.3887 Q1313.1875,673.7793 1313.4219,673.5137 Q1313.6719,673.248 1314.0469,673.248 Q1314.4219,673.248 1314.6563,673.5137 Q1314.8906,673.7793 1314.8906,674.3887 L1314.8906,677.0137 L1306.8906,677.0137 Q1306.2656,677.0137 1306,676.7793 Q1305.75,676.5449 1305.75,676.1543 Q1305.75,675.7793 1306.0156,675.5449 Q1306.2813,675.3105 1306.8906,675.3105 L1307.1563,675.3105 L1307.1563,668.6543 L1306.8906,668.6543 Q1306.2656,668.6543 1306,668.4199 Q1305.75,668.1855 1305.75,667.7949 Q1305.75,667.4199 1306,667.1855 Q1306.2656,666.9512 1306.8906,666.9512 L1314.5156,666.9512 L1314.5156,669.5449 Q1314.5156,670.1543 1314.2813,670.4199 Q1314.0625,670.6699 1313.6719,670.6699 Q1313.2969,670.6699 1313.0625,670.4199 Q1312.8281,670.1543 1312.8281,669.5449 L1312.8281,668.6543 L1308.8594,668.6543 L1308.8594,671.1074 L1310.3438,671.1074 Q1310.3438,670.4512 1310.4688,670.2637 Q1310.7344,669.8574 1311.2031,669.8574 Q1311.5781,669.8574 1311.8125,670.123 Q1312.0469,670.373 1312.0469,670.9824 L1312.0469,672.9512 Q1312.0469,673.498 1311.9219,673.6855 Q1311.6563,674.0762 1311.2031,674.0762 Q1310.7344,674.0762 1310.4688,673.6699 Q1310.3438,673.4824 1310.3438,672.8105 L1308.8594,672.8105 Z " fill="#000000"/><text fill="#000000" font-family="sans-serif" font-size="14" lengthAdjust="spacing" textLength="126" x="1324" y="677.8105">UnderstandingLevel</text><line style="stroke:#181818;stroke-width:0.5;" x1="1296" x2="1452" y1="688.0137" y2="688.0137"/><text fill="#000000" font-family="sans-serif" font-size="14" lengthAdjust="spacing" textLength="15" x="1301" y="707.1211">All</text><text fill="#000000" font-family="sans-serif" font-size="14" lengthAdjust="spacing" textLength="48" x="1301" y="725.7422">Nothing</text><line style="stroke:#181818;stroke-width:0.5;" x1="1296" x2="1452" y1="733.2559" y2="733.2559"/></g><!--class Speech--><g id="elem_Speech"><rect codeLine="81" fill="#F1F1F1" height="85.2422" id="Speech" rx="2.5" ry="2.5" style="stroke:#181818;stroke-width:0.5;" width="80" x="1810" y="106.5137"/><ellipse cx="1825" cy="122.5137" fill="#EB937F" rx="11" ry="11" style="stroke:#181818;stroke-width:1.0;"/><path d="M1823.8594,123.3105 L1823.8594,125.8105 L1828.1875,125.8105 L1828.1875,124.8887 Q1828.1875,124.2793 1828.4219,124.0137 Q1828.6719,123.748 1829.0469,123.748 Q1829.4219,123.748 1829.6563,124.0137 Q1829.8906,124.2793 1829.8906,124.8887 L1829.8906,127.5137 L1821.8906,127.5137 Q1821.2656,127.5137 1821,127.2793 Q1820.75,127.0449 1820.75,126.6543 Q1820.75,126.2793 1821.0156,126.0449 Q1821.2813,125.8105 1821.8906,125.8105 L1822.1563,125.8105 L1822.1563,119.1543 L1821.8906,119.1543 Q1821.2656,119.1543 1821,118.9199 Q1820.75,118.6855 1820.75,118.2949 Q1820.75,117.9199 1821,117.6855 Q1821.2656,117.4512 1821.8906,117.4512 L1829.5156,117.4512 L1829.5156,120.0449 Q1829.5156,120.6543 1829.2813,120.9199 Q1829.0625,121.1699 1828.6719,121.1699 Q1828.2969,121.1699 1828.0625,120.9199 Q1827.8281,120.6543 1827.8281,120.0449 L1827.8281,119.1543 L1823.8594,119.1543 L1823.8594,121.6074 L1825.3438,121.6074 Q1825.3438,120.9512 1825.4688,120.7637 Q1825.7344,120.3574 1826.2031,120.3574 Q1826.5781,120.3574 1826.8125,120.623 Q1827.0469,120.873 1827.0469,121.4824 L1827.0469,123.4512 Q1827.0469,123.998 1826.9219,124.1855 Q1826.6563,124.5762 1826.2031,124.5762 Q1825.7344,124.5762 1825.4688,124.1699 Q1825.3438,123.9824 1825.3438,123.3105 L1823.8594,123.3105 Z " fill="#000000"/><text fill="#000000" font-family="sans-serif" font-size="14" lengthAdjust="spacing" textLength="48" x="1839" y="128.3105">Speech</text><line style="stroke:#181818;stroke-width:0.5;" x1="1811" x2="1889" y1="138.5137" y2="138.5137"/><text fill="#000000" font-family="sans-serif" font-size="14" lengthAdjust="spacing" textLength="23" x="1816" y="157.6211">Tell</text><text fill="#000000" font-family="sans-serif" font-size="14" lengthAdjust="spacing" textLength="23" x="1816" y="176.2422">Ask</text><line style="stroke:#181818;stroke-width:0.5;" x1="1811" x2="1889" y1="183.7559" y2="183.7559"/></g><!--class Talkable--><g id="elem_Talkable"><rect codeLine="87" fill="#F1F1F1" height="85.2422" id="Talkable" rx="2.5" ry="2.5" style="stroke:#181818;stroke-width:0.5;" width="589" x="822.5" y="106.5137"/><ellipse cx="1085.25" cy="122.5137" fill="#B4A7E5" rx="11" ry="11" style="stroke:#181818;stroke-width:1.0;"/><path d="M1086.2031,119.1543 L1086.2031,125.8105 L1087.9219,125.8105 Q1088.5313,125.8105 1088.7969,126.0449 Q1089.0625,126.2793 1089.0625,126.6699 Q1089.0625,127.0449 1088.7969,127.2793 Q1088.5313,127.5137 1087.9219,127.5137 L1082.7813,127.5137 Q1082.1719,127.5137 1081.9063,127.2793 Q1081.6406,127.0449 1081.6406,126.6543 Q1081.6406,126.2793 1081.9063,126.0449 Q1082.1719,125.8105 1082.7813,125.8105 L1084.5,125.8105 L1084.5,119.1543 L1082.7813,119.1543 Q1082.1719,119.1543 1081.9063,118.9199 Q1081.6406,118.6855 1081.6406,118.2949 Q1081.6406,117.9199 1081.9063,117.6855 Q1082.1719,117.4512 1082.7813,117.4512 L1087.9219,117.4512 Q1088.5313,117.4512 1088.7969,117.6855 Q1089.0625,117.9199 1089.0625,118.2949 Q1089.0625,118.6855 1088.7969,118.9199 Q1088.5313,119.1543 1087.9219,119.1543 L1086.2031,119.1543 Z " fill="#000000"/><text fill="#000000" font-family="sans-serif" font-size="14" font-style="italic" lengthAdjust="spacing" textLength="55" x="1105.75" y="128.3105">Talkable</text><line style="stroke:#181818;stroke-width:0.5;" x1="823.5" x2="1410.5" y1="138.5137" y2="138.5137"/><line style="stroke:#181818;stroke-width:0.5;" x1="823.5" x2="1410.5" y1="146.5137" y2="146.5137"/><ellipse cx="833.5" cy="161.3242" fill="#84BE84" rx="3" ry="3" style="stroke:#038048;stroke-width:1.0;"/><text fill="#000000" font-family="sans-serif" font-size="14" lengthAdjust="spacing" textLength="563" x="842.5" y="165.6211">say(type : Speech, message : String, toCharacter : Character, level : SeverityLevel) : void</text><ellipse cx="833.5" cy="179.9453" fill="#84BE84" rx="3" ry="3" style="stroke:#038048;stroke-width:1.0;"/><text fill="#000000" font-family="sans-serif" font-size="14" lengthAdjust="spacing" textLength="70" x="842.5" y="184.2422">say() : void</text></g><!--class Perceptionable--><g id="elem_Perceptionable"><rect codeLine="93" fill="#F1F1F1" height="122.4844" id="Perceptionable" rx="2.5" ry="2.5" style="stroke:#181818;stroke-width:0.5;" width="328" x="1447" y="88.0137"/><ellipse cx="1559.25" cy="104.0137" fill="#B4A7E5" rx="11" ry="11" style="stroke:#181818;stroke-width:1.0;"/><path d="M1560.2031,100.6543 L1560.2031,107.3105 L1561.9219,107.3105 Q1562.5313,107.3105 1562.7969,107.5449 Q1563.0625,107.7793 1563.0625,108.1699 Q1563.0625,108.5449 1562.7969,108.7793 Q1562.5313,109.0137 1561.9219,109.0137 L1556.7813,109.0137 Q1556.1719,109.0137 1555.9063,108.7793 Q1555.6406,108.5449 1555.6406,108.1543 Q1555.6406,107.7793 1555.9063,107.5449 Q1556.1719,107.3105 1556.7813,107.3105 L1558.5,107.3105 L1558.5,100.6543 L1556.7813,100.6543 Q1556.1719,100.6543 1555.9063,100.4199 Q1555.6406,100.1855 1555.6406,99.7949 Q1555.6406,99.4199 1555.9063,99.1855 Q1556.1719,98.9512 1556.7813,98.9512 L1561.9219,98.9512 Q1562.5313,98.9512 1562.7969,99.1855 Q1563.0625,99.4199 1563.0625,99.7949 Q1563.0625,100.1855 1562.7969,100.4199 Q1562.5313,100.6543 1561.9219,100.6543 L1560.2031,100.6543 Z " fill="#000000"/><text fill="#000000" font-family="sans-serif" font-size="14" font-style="italic" lengthAdjust="spacing" textLength="95" x="1579.75" y="109.8105">Perceptionable</text><line style="stroke:#181818;stroke-width:0.5;" x1="1448" x2="1774" y1="120.0137" y2="120.0137"/><line style="stroke:#181818;stroke-width:0.5;" x1="1448" x2="1774" y1="128.0137" y2="128.0137"/><ellipse cx="1458" cy="142.8242" fill="#84BE84" rx="3" ry="3" style="stroke:#038048;stroke-width:1.0;"/><text fill="#000000" font-family="sans-serif" font-size="14" lengthAdjust="spacing" textLength="209" x="1467" y="147.1211">look(&#1089;haracter : Character) : void</text><ellipse cx="1458" cy="161.4453" fill="#84BE84" rx="3" ry="3" style="stroke:#038048;stroke-width:1.0;"/><text fill="#000000" font-family="sans-serif" font-size="14" lengthAdjust="spacing" textLength="302" x="1467" y="165.7422">listen(person : Person, isListen : Boolean) : void</text><ellipse cx="1458" cy="180.0664" fill="#84BE84" rx="3" ry="3" style="stroke:#038048;stroke-width:1.0;"/><text fill="#000000" font-family="sans-serif" font-size="14" lengthAdjust="spacing" textLength="112" x="1467" y="184.3633">closeEyes() : void</text><ellipse cx="1458" cy="198.6875" fill="#84BE84" rx="3" ry="3" style="stroke:#038048;stroke-width:1.0;"/><text fill="#000000" font-family="sans-serif" font-size="14" lengthAdjust="spacing" textLength="111" x="1467" y="202.9844">openEyes() : void</text></g><!--reverse link Talkable to Character--><g id="link_Talkable_Character"><path codeLine="108" d="M1080.21,206.7685 C1061.44,235.7285 1045.51,260.3037 1022.28,296.1337 " fill="none" id="Talkable-backto-Character" style="stroke:#181818;stroke-width:1.0;"/><polygon fill="none" points="1090,191.6637,1075.1751,203.5052,1085.245,210.0318,1090,191.6637" style="stroke:#181818;stroke-width:1.0;"/></g><!--reverse link Character to River--><g id="link_Character_River"><path codeLine="110" d="M965,492.8037 C965,528.8037 965,552.7637 965,590.4937 " fill="none" id="Character-backto-River" style="stroke:#181818;stroke-width:1.0;"/><polygon fill="none" points="965,474.8037,959,492.8037,971,492.8037,965,474.8037" style="stroke:#181818;stroke-width:1.0;"/></g><!--reverse link Character to Sound--><g id="link_Character_Sound"><path codeLine="111" d="M772.1605,482.6239 C699.8205,518.6839 631.56,552.7037 555.71,590.5037 " fill="none" id="Character-backto-Sound" style="stroke:#181818;stroke-width:1.0;"/><polygon fill="none" points="788.27,474.5937,769.4838,477.2541,774.8373,487.9937,788.27,474.5937" style="stroke:#181818;stroke-width:1.0;"/></g><!--reverse link Character to Person--><g id="link_Character_Person"><path codeLine="112" d="M1264.979,479.9557 C1275.179,483.1257 1268.08,480.9237 1278,484.0137 C1363.77,510.7037 1387.56,510.7537 1471,544.0137 C1476.75,546.3037 1482.54,548.6537 1488.35,551.0637 " fill="none" id="Character-backto-Person" style="stroke:#181818;stroke-width:1.0;"/><polygon fill="none" points="1247.79,474.6137,1263.1983,485.6854,1266.7597,474.2261,1247.79,474.6137" style="stroke:#181818;stroke-width:1.0;"/></g><!--reverse link Perceptionable to Person--><g id="link_Perceptionable_Person"><path codeLine="114" d="M1732.0283,222.2947 C1742.2283,231.7847 1738.13,230.1837 1745,242.0137 C1797.56,332.5037 1806.05,450.6437 1801.93,543.9237 " fill="none" id="Perceptionable-backto-Person" style="stroke:#181818;stroke-width:1.0;"/><polygon fill="none" points="1718.85,210.0337,1727.9413,226.6874,1736.1153,217.9019,1718.85,210.0337" style="stroke:#181818;stroke-width:1.0;"/></g><!--SRC=[nLR1Rjim33rRNo6W5nTEyW55CI3BEg10LXHBTnfsK6Gk4I9BdgHqCB8Uzedxer5M75kkamuBjlfYXNnF91z5AoNZ6xO2QWsVVDT6vZl29REMljS6hACxGl4PArO0lQ8BPuHQrQOBeRZSvf3VEYZGDLipmxW3Ktkp5RWxvAINCIkpu6u3qQQyeNJfdl2eHKuIlyS1szadoU3RbibWMsejmyvE1_-pa6jcrpETXro4SkI9iALrFXmDjRQvxqZIgpKPAYN9BAjILvKri0JWwn4jm5elPOCQKQTdGoMEg8H7a1w8RoDSDVU_3vK7eJ10HukpImwLVXGOy4HJkLQvS4AhkS3cNz6fCQpow-k0UjCcz_-gRmxEh4aknHF1ZIZz-X1mCfd4Z5MNqLUehsSoA6OofEHUodimLYjoLClN44bglNbXh08EEmegBUiIq1Dg6L5XvxK7JMzH5M0gvd6fBTnK-tbixRe45PjnGeHBIybuMst7wTW6xhKztiqELkayFQr6acrLZYKufbhefuC9j-lZps__GcFCuzs_Y8iwDaVWthMuFpxMNSxbwv-wSyG4jItYQAZfdNOBDEYjbHLfLmtyUMUHCvNIyzO-r9E7bfsR3Qj3hUokYLSBWwG7GDRKRZmU4mBprP_N1oOtR2a10VzKpbZAA0KSI0vrWtqYc4SzsRz-dXpjlndheP4U66UlQ4TGslnB-C24_mHc1RxJ8CVdBn6Ba4PEUlrZFExSjQGLhVRKTrFV6CQiPzn_UaciKkp3vpS0]--></g></svg>